<?xml version="1.0" encoding="utf-8"?>
<!-- Generator: Adobe Illustrator 16.0.0, SVG Export Plug-In . SVG Version: 6.00 Build 0)  -->
<!DOCTYPE svg PUBLIC "-//W3C//DTD SVG 1.1//EN" "http://www.w3.org/Graphics/SVG/1.1/DTD/svg11.dtd">
<svg version="1.1" id="Layer_1" xmlns="http://www.w3.org/2000/svg" xmlns:xlink="http://www.w3.org/1999/xlink" x="0px" y="0px"
	 width="20px" height="20px" viewBox="0 0 20 20" enable-background="new 0 0 20 20" xml:space="preserve">
<path fill-rule="evenodd" clip-rule="evenodd" d="M10.122,0H9.575C4.287,0,0,4.353,0,9.723v0.556C0,15.648,4.287,20,9.575,20h0.547
	c5.288,0,9.575-4.352,9.575-9.722V9.723C19.697,4.353,15.41,0,10.122,0z M11.868,7.183h-0.007l-0.913-0.096h-0.026L10.83,7.101
	l-0.033,0.013l-0.104,0.051c-0.022,0.003-0.039,0.014-0.052,0.031l-0.078,0.083c-0.018,0.021-0.033,0.046-0.046,0.076
	c-0.013,0.026-0.024,0.053-0.033,0.083c-0.009,0.03-0.015,0.062-0.02,0.096c-0.004,0.03-0.006,0.061-0.006,0.095l0.013,0.94
	l1.344,0.014l-0.196,1.486l-1.161,0.044v4.327l-0.007,0.006H8.639v-4.371H7.66V8.582h0.939V8.568l0.007-0.019l0.033-1.595
	l0.013-0.089V6.82l0.013-0.044C8.669,6.742,8.678,6.71,8.691,6.681c0.008-0.03,0.021-0.058,0.039-0.083
	c0.018-0.063,0.042-0.121,0.072-0.172C8.828,6.372,8.86,6.319,8.899,6.268C8.93,6.221,8.967,6.176,9.01,6.134
	c0.039-0.047,0.081-0.089,0.124-0.127V6.001L9.447,5.76c0.048-0.03,0.1-0.055,0.157-0.077c0.052-0.021,0.111-0.04,0.176-0.057
	l0.358-0.07h0.235l1.657,0.127h0.006L11.868,7.183z"/>
</svg>
