<?xml version="1.0" encoding="utf-8"?>
<!-- Generator: Adobe Illustrator 16.0.0, SVG Export Plug-In . SVG Version: 6.00 Build 0)  -->
<!DOCTYPE svg PUBLIC "-//W3C//DTD SVG 1.1//EN" "http://www.w3.org/Graphics/SVG/1.1/DTD/svg11.dtd">
<svg version="1.1" id="Layer_1" xmlns="http://www.w3.org/2000/svg" xmlns:xlink="http://www.w3.org/1999/xlink" x="0px" y="0px"
	 width="107px" height="146px" viewBox="0 0 107 146" enable-background="new 0 0 107 146" xml:space="preserve">
<path fill="#fff" d="M87.62,52.341c0.498,0,1.144-0.12,1.773-0.618c1.631-0.259,3.256-1.107,4.589-2.432l10.651-10.718
	c3.026-3.011,3.026-8.106,0.038-11.078L93.969,16.412c-1.688-1.676-3.991-2.635-6.349-2.635H63.324V9.641
	c0-5.313-4.348-9.64-9.691-9.64s-9.691,4.327-9.691,9.64v4.136H20.151c-4.939,0-9.437,4.728-9.437,9.918v18.617
	c0,5.159,4.586,10.029,9.437,10.029h23.791v5.47L19.448,57.79c-2.416-0.313-4.84,0.464-6.514,2.13L2.275,70.524
	c-1.477,1.47-2.29,3.405-2.29,5.45c0,2.048,0.813,3.985,2.298,5.462L12.937,91.94c1.362,1.35,3.219,2.064,5.371,2.064
	c0.201,0,0.402-0.005,0.455-0.014c0.549,0,1.001-0.146,1.352-0.33h23.827V146h5.538V93.66h8.307V146h5.538V93.66h23.431
	c4.816,0,9.796-3.094,9.796-8.278V66.766c0-5.333-5.064-8.915-9.796-8.915l-23.431-0.019v-5.491H87.62z M49.479,9.641
	c0-2.274,1.863-4.128,4.153-4.128c2.291,0,4.154,1.854,4.154,4.128v4.136h-8.307V9.641z M16.252,42.312V23.695
	c0-2.06,2.077-4.411,3.899-4.411h67.501c0.847,0,1.769,0.396,2.363,0.987l10.7,11.083c0.89,0.883,0.89,2.441-0.011,3.339
	L90.06,45.404c-0.544,0.537-1.207,0.888-1.742,0.888h-0.003l-0.208-0.014l-0.208,0.021c-0.522,0.047-0.992,0.224-1.414,0.532H20.151
	C18.329,46.832,16.252,44.423,16.252,42.312z M91.014,66.766v18.616c0,1.711-2.212,2.773-4.259,2.773H19.284
	c-0.545,0-0.994,0.144-1.346,0.321c-0.632-0.059-0.923-0.269-1.096-0.445L6.19,77.532c-0.43-0.431-0.668-0.982-0.668-1.558
	c0-0.575,0.238-1.128,0.668-1.555L16.85,63.815c0.226-0.224,0.478-0.366,0.725-0.455h69.18
	C88.724,63.36,91.014,64.845,91.014,66.766z M57.787,57.822l-8.307-0.007v-5.474h8.307V57.822z"/>
</svg>
