<?xml version="1.0" encoding="utf-8"?>
<!-- Generator: Adobe Illustrator 16.0.0, SVG Export Plug-In . SVG Version: 6.00 Build 0)  -->
<!DOCTYPE svg PUBLIC "-//W3C//DTD SVG 1.1//EN" "http://www.w3.org/Graphics/SVG/1.1/DTD/svg11.dtd">
<svg version="1.1" id="Layer_1" xmlns="http://www.w3.org/2000/svg" xmlns:xlink="http://www.w3.org/1999/xlink" x="0px" y="0px"
	 width="65.989px" height="63.988px" viewBox="0 0 65.989 63.988" enable-background="new 0 0 65.989 63.988" xml:space="preserve">
<path fill="#676767" fill-rule="evenodd" clip-rule="evenodd" d="M39.07,63.988V63.95h-0.039V63.86H38.98v-0.089h-0.038v-0.09h-0.039v-0.076h-0.051
	v-0.09h-0.039v-0.089h-0.038v-0.077h-0.051V63.26h-0.038v-0.09h-0.039v-0.077h-0.051v-0.051h-0.038v-0.077h-0.038v-0.089h-0.051
	v-0.09h-0.039V62.71h-0.039v-0.09h-0.051v-0.089h-0.038v-0.039h-0.051v-0.089h-0.038v-0.077h-0.039v-0.089h-0.051v-0.089h-0.038
	v-0.077h-0.038V62.02h-0.051v-0.077h-0.039v-0.089h-0.039v-0.09h-0.051v-0.038h-0.038v-0.09h-0.038v-0.077h-0.051V61.47h-0.039
	v-0.039h-0.038v-0.089h-0.051v-0.09h-0.038v-0.089h-0.039v-0.038h-0.051v-0.09h-0.039v-0.077h-0.038v-0.051h-0.051v-0.076h-0.039
	v-0.09h-0.039v-0.038h-0.051v-0.089h-0.038v-0.09h-0.038v-0.038h-0.051v-0.09h-0.039v-0.038h-0.039v-0.089h-0.051v-0.077h-0.038
	V60.14h-0.039v-0.077h-0.051v-0.051h-0.039v-0.077H36.77v-0.09h-0.051v-0.038H36.68v-0.089h-0.038V59.68h-0.051V59.59h-0.039v-0.039
	h-0.038v-0.089h-0.051v-0.038h-0.039v-0.09h-0.038v-0.089h-0.051v-0.039h-0.039v-0.089h-0.039v-0.038h-0.051v-0.09h-0.038v-0.038
	h-0.039v-0.089H36.08v-0.039h-0.038v-0.089h-0.039v-0.039h-0.051v-0.051h-0.038v-0.077h-0.039v-0.051h-0.051v-0.077h-0.039v-0.051
	h-0.038v-0.077h-0.051V58.26h-0.039v-0.076h-0.051v-0.051h-0.039v-0.039h-0.038v-0.089h-0.051v-0.039h-0.038v-0.089h-0.039v-0.038
	h-0.051V57.8h-0.038v-0.089h-0.038v-0.038h-0.051v-0.09h-0.039v-0.038h-0.039v-0.052h-0.051v-0.077h-0.038v-0.051H35.02v-0.077
	h-0.051v-0.052H34.93v-0.038h-0.038V57.11h-0.051v-0.039h-0.038v-0.038h-0.039v-0.089h-0.051v-0.039h-0.039v-0.051h-0.038v-0.077
	h-0.051v-0.051h-0.038v-0.039h-0.039v-0.039h-0.051V56.56h-0.038v-0.038h-0.038v-0.051H34.33v-0.077h-0.039v-0.051h-0.038v-0.038
	h-0.051v-0.09h-0.038v-0.039h-0.038v-0.051h-0.051v-0.038h-0.039v-0.09h-0.038v-0.039h-0.051v-0.038h-0.038V55.87H33.87v-0.077
	h-0.051v-0.051H33.78v-0.038h-0.038v-0.039h-0.051v-0.089h-0.039v-0.039h-0.038v-0.051h-0.051v-0.038h-0.038V55.41h-0.038v-0.09
	h-0.051v-0.038h-0.039V55.23h-0.039v-0.038h-0.051v-0.039h-0.039v-0.089h-0.038v-0.038H33.18v-0.052h-0.039v-0.038H33.09v-0.039
	h-0.039v-0.089h-0.038v-0.038h-0.051v-0.051h-0.038v-0.039h-0.039v-0.039h-0.051v-0.051h-0.039v-0.077h-0.038v-0.051h-0.051v-0.039
	h-0.038v-0.038H32.63v-0.051h-0.051v-0.039h-0.039v-0.039h-0.038v-0.089h-0.051v-0.039h-0.039V54.08h-0.038v-0.039h-0.051v-0.038
	h-0.039v-0.051h-0.038v-0.039h-0.052v-0.039h-0.039v-0.089H32.12v-0.038h-0.051v-0.051H32.03v-0.038h-0.038V53.62H31.94v-0.051
	h-0.039V53.53h-0.038v-0.051h-0.051v-0.038h-0.038v-0.039h-0.038v-0.051h-0.051v-0.038h-0.039v-0.09h-0.038v-0.039h-0.051v-0.038
	h-0.038v-0.051h-0.038v-0.039H31.43v-0.038h-0.039v-0.051h-0.039v-0.039h-0.051v-0.039h-0.038V52.84h-0.038v-0.038h-0.051v-0.039
	h-0.038v-0.051h-0.039v-0.039h-0.051v-0.038h-0.039v-0.051H30.97v-0.039h-0.051v-0.039H30.88v-0.051h-0.039v-0.038h-0.051v-0.039
	h-0.039v-0.051h-0.038V52.29h-0.052v-0.038h-0.038v-0.051h-0.051v-0.039h-0.039v-0.039h-0.039v-0.051h-0.051v-0.039h-0.039v-0.038
	h-0.038v-0.051h-0.051v-0.038h-0.039v-0.039h-0.039v-0.051h-0.05v-0.038h-0.039v-0.038h-0.039v-0.051h-0.051V51.65h-0.038v-0.038
	h-0.039v-0.051h-0.05v-0.039h-0.039v-0.039h-0.038v-0.051h-0.051v-0.038h-0.038v-0.039H29.73v-0.051h-0.051v-0.038h-0.039v-0.039
	h-0.039v-0.051h-0.051v-0.039h-0.038v-0.038h-0.089V51.05h-0.039v-0.039h-0.039V50.96h-0.051v-0.039h-0.038v-0.038h-0.038v-0.051
	h-0.051v-0.039H29.13v-0.038h-0.039v-0.051H29.04v-0.038h-0.038v-0.039h-0.039v-0.051h-0.089v-0.039h-0.039V50.5h-0.051v-0.051
	h-0.039v-0.038h-0.038v-0.039h-0.051v-0.051h-0.038v-0.039h-0.038v-0.038h-0.09v-0.051h-0.038v-0.039h-0.051v-0.039h-0.038v-0.051
	h-0.038v-0.038h-0.051v-0.038h-0.039v-0.052h-0.089v-0.039h-0.038v-0.038h-0.051V49.81h-0.038v-0.039h-0.039v-0.039h-0.051v-0.051
	h-0.077v-0.038h-0.051v-0.038h-0.038v-0.051h-0.039v-0.039h-0.051v-0.038h-0.077v-0.051h-0.051v-0.039h-0.039V49.35h-0.038v-0.051
	h-0.051V49.26h-0.077v-0.039H27.29V49.17h-0.038v-0.038h-0.038v-0.039h-0.051v-0.051h-0.077v-0.038h-0.051v-0.038h-0.039v-0.051
	h-0.038v-0.039h-0.089v-0.039H26.83v-0.051h-0.051v-0.039H26.74V48.71h-0.089v-0.051h-0.039v-0.039h-0.039v-0.038h-0.051v-0.051
	h-0.077v-0.038h-0.051v-0.051h-0.038v-0.039h-0.089v-0.039h-0.039v-0.051h-0.039v-0.038h-0.089v-0.039h-0.038v-0.051h-0.051v-0.039
	h-0.039v-0.038h-0.089v-0.051h-0.039V48.02h-0.038v-0.039h-0.09V47.93H25.68v-0.038h-0.051v-0.039h-0.077v-0.051h-0.051v-0.039
	h-0.039v-0.038h-0.089v-0.051h-0.038v-0.039h-0.09v-0.038h-0.038v-0.051h-0.051v-0.039H25.08V47.47h-0.051v-0.051H24.99v-0.038
	h-0.089v-0.039h-0.038v-0.051h-0.09v-0.038h-0.039v-0.038h-0.038v-0.09h0.077v-0.038h0.051v-0.051h0.039v-0.038h0.038v-0.039h0.051
	v-0.051h0.039v-0.077h0.038V46.78h0.051v-0.077h0.039v-0.051h0.039v-0.077h0.051v-0.128h0.038V46.32h0.039v-0.218h0.051v-0.435
	h-0.051v-0.166h0.051v-0.038h0.077v-0.051h0.14v0.051h0.039v0.038h0.089v0.038h0.038v0.051h0.039v0.039h0.089v0.038h0.039v0.051
	h0.051v0.038h0.077v0.038h0.051v0.051h0.077v0.039h0.051v0.051h0.039v0.039h0.089v0.038h0.039v0.051h0.038v0.039h0.089v0.039h0.039
	v0.051h0.051v0.038h0.039v0.039h0.089v0.051h0.038v0.038h0.039v0.038h0.09v0.051h0.038v0.039h0.051v0.039h0.038v0.051h0.09v0.038
	h0.039v0.039h0.038v0.051h0.089v0.039h0.038v0.038h0.051v0.051h0.039v0.038h0.039v0.039h0.089v0.051h0.039v0.039h0.051v0.038h0.039
	v0.051h0.089v0.038h0.039v0.039h0.038v0.051h0.051v0.038h0.039v0.038h0.089v0.051h0.039v0.039h0.038v0.038h0.051v0.051h0.038v0.038
	h0.051v0.039h0.077v0.051h0.051v0.038h0.038v0.039h0.038v0.051h0.051v0.038h0.038v0.039h0.09v0.051h0.038v0.039h0.038v0.038h0.051
	v0.051h0.038v0.039h0.039v0.039h0.051v0.051h0.039v0.038h0.089v0.039h0.039v0.051h0.038v0.039h0.051v0.038h0.039v0.051h0.039v0.039
	h0.051v0.039h0.038v0.051h0.038v0.038h0.051v0.051h0.039v0.038h0.039v0.039h0.089v0.051h0.038v0.038h0.051v0.039h0.039v0.051h0.039
	v0.039h0.051v0.039h0.039v0.051h0.038v0.038h0.051v0.038h0.038v0.051h0.039v0.039h0.05v0.038h0.039v0.051h0.038v0.039h0.051v0.039
	h0.039v0.051h0.039v0.038h0.05v0.039h0.039v0.051h0.039v0.038h0.051v0.039h0.038v0.051h0.039v0.038h0.051v0.038h0.039v0.051h0.039
	v0.039h0.051v0.039h0.038v0.051h0.052v0.038h0.038v0.039h0.039v0.052h0.051v0.038h0.039v0.038h0.038v0.051h0.051v0.039h0.038v0.039
	h0.039v0.051h0.051v0.077h0.039v0.051h0.038v0.039h0.051v0.038h0.038V50.5h0.038v0.039h0.051v0.039h0.039v0.051h0.039v0.039h0.051
	v0.038h0.038v0.051h0.038v0.038h0.051v0.09h0.038v0.038h0.039v0.039h0.051v0.051h0.038v0.039h0.038v0.051h0.051v0.038h0.038v0.039
	h0.039v0.09h0.051v0.038h0.038v0.051h0.039v0.039h0.051v0.038h0.038v0.051h0.039v0.039h0.052v0.089h0.038v0.038h0.039v0.039h0.051
	v0.051h0.038v0.038h0.039v0.089h0.051v0.039h0.038v0.038h0.039v0.051h0.051v0.038h0.039v0.089h0.038v0.039h0.051v0.039h0.038v0.051
	h0.039v0.038h0.051v0.089h0.039v0.039h0.038v0.038h0.051v0.051h0.038v0.077h0.039v0.051h0.051v0.038h0.039v0.039h0.051v0.09h0.038
	v0.038h0.039v0.051h0.051v0.039h0.039v0.09h0.039v0.038h0.051v0.039h0.038v0.089h0.038v0.039h0.051v0.051h0.038v0.077h0.039v0.051
	h0.051v0.039h0.038v0.089h0.039v0.038h0.051v0.051h0.039v0.077h0.038v0.051h0.051v0.038h0.038v0.089h0.039v0.039h0.051v0.039h0.038
	v0.089h0.038v0.039h0.051v0.089h0.038v0.038h0.039v0.051h0.051v0.077h0.038v0.051h0.038v0.077h0.051v0.051h0.039v0.077h0.038v0.051
	h0.051v0.039h0.038v0.09h0.039v0.038h0.051v0.089h0.039v0.039h0.038v0.09h0.051v0.038h0.038v0.089h0.039v0.039h0.051v0.089h0.039
	v0.038h0.038v0.09h0.051v0.038h0.039v0.089h0.039v0.039h0.051v0.089h0.038v0.077h0.038v0.051h0.051v0.077h0.039v0.051h0.038v0.077
	h0.051v0.09h0.038v0.038h0.039v0.089h0.051v0.051h0.039v0.077h0.051v0.089h0.038v0.039h0.039v0.089h0.051v0.089h0.039v0.039h0.038
	v0.089h0.051v0.077h0.039v0.051h0.038v0.077h0.051v0.089h0.039v0.039h0.038v0.089h0.051v0.09h0.039v0.077h0.039v0.051h0.051v0.077
	h0.038v0.09h0.039v0.09h0.051v0.076h0.038V57.8h0.039v0.077h0.051v0.089h0.038v0.09h0.039v0.077h0.051v0.089h0.038v0.038h0.039v0.09
	h0.051v0.089h0.039v0.077h0.038v0.089h0.051v0.09h0.039v0.089h0.039v0.077h0.051v0.089h0.038v0.089h0.038v0.077h0.051v0.089h0.039
	v0.09h0.039v0.077h0.051v0.089h0.038v0.089h0.039v0.077h0.051v0.09h0.039v0.089h0.038v0.077h0.051v0.089h0.038v0.128h0.039v0.089
	h0.051v0.077h0.038v0.089h0.038v0.089h0.051v0.128h0.039v0.077h0.039v0.089h0.051v0.09h0.038v0.127h0.038v0.077h0.051v0.09h0.039
	v0.127h0.038v0.09h0.051v0.089h0.038v0.128h0.051v0.077h0.039v0.128h0.039v0.09h0.051v0.127h0.038v0.09h0.038v0.127h0.051v0.077
	h0.039v0.128h0.038v0.128h0.051v0.089h0.038v0.128h0.039v0.128h0.051v0.089h0.039v0.128h0.038v0.127h0.051v0.128h0.039v0.077h0.038
	v0.128h0.051v0.127h0.039v0.141h0.038v0.076h-0.038v0.051h-0.039v0.039H39.07z"/>
<path fill="#676767" fill-rule="evenodd" clip-rule="evenodd" d="M20.34,44.517v-0.038h-0.039V44.44h-0.089v-0.051h-0.089v-0.039h-0.077v-0.039
	h-0.089v-0.051h-0.09v-0.038h-0.076v-0.039h-0.09v-0.051h-0.038v-0.039h-0.089v-0.038h-0.09v-0.051h-0.076v-0.038h-0.089v-0.038
	h-0.09v-0.052h-0.077v-0.038h-0.089v-0.039h-0.089V43.75h-0.077v-0.038h-0.089v-0.039h-0.089v-0.051h-0.077v-0.038h-0.09v-0.038
	h-0.089v-0.051h-0.077v-0.039h-0.089v-0.038h-0.089v-0.051h-0.077v-0.039h-0.128v-0.051h-0.089v-0.039h-0.089V43.2h-0.089v-0.051
	h-0.077V43.11h-0.051v-0.038h-0.039v-0.179h-0.038v-0.128h-0.051v-0.077h-0.039v-0.089h-0.038v-0.09H17.35v-0.038h-0.039v-0.089
	h-0.038v-0.039h-0.051v-0.038h-0.038v-0.051h-0.039v-0.039h-0.051v-0.039h-0.039v-0.051h-0.038v-0.039h-0.09v-0.038H16.89v-0.051
	h-0.089V41.96h-0.09v-0.039h-0.076V41.87h-0.128v-0.038H16.29v-0.038h-0.6v0.038h-0.473v0.038h-0.639v-0.038H14.45v-0.038h-0.077
	v-0.051h-0.127v-0.039h-0.128v-0.038H13.99v-0.051h-0.127v-0.038h-0.09v-0.039h-0.127v-0.051h-0.128v-0.038h-0.128V41.41h-0.127
	v-0.051h-0.128v-0.038h-0.127v-0.039h-0.128v-0.051H12.75v-0.039h-0.127v-0.038h-0.128v-0.051h-0.128v-0.039h-0.179v-0.039h-0.128
	v-0.051h-0.127v-0.038h-0.128v-0.039h-0.166v-0.051h-0.128v-0.039h-0.166v-0.051h-0.128V40.72h-0.179v-0.039h-0.128V40.63h-0.166
	v-0.039h-0.128v-0.038h-0.166v-0.051h-0.179v-0.039h-0.166v-0.039H9.927v-0.051H9.761v-0.039H9.595v-0.038H9.416v-0.051H9.25v-0.039
	H9.084V40.17H8.867v-0.051H8.7v-0.038H8.483v-0.038H8.317v-0.051H8.1v-0.039H7.883v-0.038H7.678v-0.051H7.461v-0.039H7.244v-0.039
	H7.027v-0.051H6.771v-0.038H6.516v-0.039H6.26v-0.051H6.005v-0.039H5.749v-0.038H5.456v-0.051H5.162v-0.039H4.855v-0.038H4.51
	v-0.051H4.178v-0.039H3.794v-0.039H3.411v-0.051H2.938v-0.038H2.427v-0.039h-0.6v-0.051H1.06v-0.038H0V38.84h0.205v-0.038h0.434
	v-0.039h0.46v-0.051h0.601v-0.039h0.767v-0.038h3.283v0.038h0.818v0.039h0.549v0.051h0.511v0.039h0.435v0.038h0.383v0.051h0.333
	v0.039h0.345v0.039h0.294v0.051h0.307v0.038h0.255v0.038h0.256v0.051h0.255v0.039h0.255v0.038h0.217v0.051h0.255v0.039h0.205v0.039
	h0.217v0.051h0.166v0.038h0.217v0.039h0.217v0.051h0.166v0.038h0.166v0.039h0.217v0.051h0.179v0.039h0.166v0.038H13.3v0.051h0.179
	v0.039h0.127v0.039h0.166v0.051h0.167v0.038h0.127v0.039h0.179v0.051h0.127v0.038h0.166v0.038h0.128v0.051h0.166v0.038h0.128v0.039
	h0.128v0.051h0.127v0.038h0.179v0.039h0.127v0.051h0.128v0.039h0.128v0.039h0.127v0.051h0.128v0.038h0.127v0.039h0.128v0.051h0.089
	v0.039h0.128v0.038h0.128v0.051h0.127v0.039h0.128v0.051h0.077v0.039h0.128v0.038h0.127v0.051h0.089v0.039h0.128v0.039h0.089v0.051
	h0.128v0.038h0.127v0.039h0.09v0.051h0.127v0.039h0.077v0.038h0.09v0.051h0.127v0.038h0.089v0.038h0.128v0.051h0.077v0.039h0.089
	v0.038h0.128v0.051h0.089v0.038h0.077v0.039h0.128v0.051h0.089v0.038h0.089v0.038h0.077v0.051h0.089v0.039h0.128v0.038h0.089v0.051
	h0.077v0.038h0.089v0.039h0.089v0.051h0.077v0.039h0.089v0.039h0.128v0.051h0.089v0.038h0.077v0.039h0.089v0.051h0.09v0.039h0.089
	v0.038h0.077v0.051h0.089v0.039h0.089v0.039h0.077v0.051h0.089v0.038h0.039v0.039h0.089v0.051h0.089v0.039h0.077v0.038h0.089v0.051
	h0.089v0.038h0.077v0.039h0.089v0.051h0.09v0.038h0.038v0.167h-0.038v0.051h-0.128v0.039H21.49v0.051h-0.077v0.038h-0.09v0.039
	h-0.089v0.051h-0.077v0.038h-0.051v0.038h-0.077v0.051h-0.051v0.039H20.94v0.038h-0.039v0.051h-0.051v0.039h-0.038v0.038h-0.039
	v0.052h-0.051v0.076h-0.039v0.051h-0.038v0.077h-0.051v0.09h-0.038v0.089h-0.039v0.128h-0.051v0.076H20.34z"/>
<path  fill="#676767" fill-rule="evenodd" clip-rule="evenodd" d="M14.246,30.556v-0.039h-0.179v-0.039H13.99v-0.051h-0.051V30.39H13.9v-0.039
	h-0.038V30.3h-0.051v-0.039h-0.039v-0.039h-0.038v-0.089h-0.051v-0.127h-0.038v-0.128h-0.039v-0.166h-0.051v-0.179h-0.039v-0.166
	h-0.038v-0.127h-0.051v-0.167h-0.039v-0.179h-0.038V28.51h0.038v-0.076h0.039v-0.089h0.051v-0.09h0.038v-0.038h0.039v-0.039h0.051
	v-0.051h0.039v-0.038h0.089v-0.051h0.077v-0.039h0.179V27.96h0.128v-0.051h0.166v-0.039h0.166v-0.038h0.179v-0.051h0.127v-0.039
	h0.167v-0.038h0.511v0.038h0.089v0.039h0.089v0.051h0.039v0.038h0.039v0.039h0.051v0.051h0.039v0.038h0.038v0.09h0.051v0.089h0.038
	v0.167h0.039v0.166h0.051v0.128h0.038v0.178h0.038v0.167h0.051v0.128h0.038v0.166H16.2v0.474h-0.039v0.089h-0.038v0.077h-0.051
	v0.051h-0.038v0.077h-0.038v0.051h-0.09v0.038h-0.038v0.038h-0.089v0.051h-0.128v0.039h-0.128V30.3h-0.166v0.051h-0.179v0.039
	h-0.167v0.038h-0.127v0.051h-0.179v0.039h-0.167v0.039H14.246z M14.322,29.968v-0.051h-0.077v-0.128h-0.051v-0.167h-0.039v-0.166
	h-0.038v-0.128h-0.051v-0.179h-0.038v-0.167H13.99v-0.167h-0.051v-0.178h0.051V28.6h0.039v-0.039h0.166V28.51h0.179v-0.038h0.166
	v-0.038h0.128v-0.051h0.166v-0.038h0.179v-0.039h0.256v0.039h0.038v0.089h0.051v0.127h0.039v0.167h0.038v0.166h0.051v0.179h0.038
	v0.128h0.039v0.166h0.051v0.255h-0.051v0.039h-0.128v0.051h-0.166v0.039h-0.179v0.038h-0.128v0.051h-0.166v0.038h-0.166v0.039H14.45
	v0.051H14.322z"/>
<path  fill="#676767" fill-rule="evenodd" clip-rule="evenodd" d="M38.175,20.404v-0.051h-0.127v-0.039h-0.09v-0.038h-0.089v-0.051h-0.038v-0.039
	h-0.038v-0.039h-0.09v-0.051h-0.038v-0.077h-0.051V19.97h-0.038v-0.038h-0.039v-0.089h-0.051v-0.039h-0.039v-0.09h-0.038v-0.127
	h-0.051v-0.077h-0.039v-0.128h-0.039v-0.127h-0.051v-0.128h-0.038v-0.128h-0.038V18.87h-0.051v-0.127h-0.039v-0.128h-0.039v-0.128
	h-0.051v-0.128h-0.038v-0.127h-0.039v-0.128h-0.051v-0.179h-0.039V17.63H36.77v-0.127h0.038v-0.256h0.039v-0.128h0.051V17.03h0.039
	v-0.09h0.038v-0.039h0.051v-0.038h0.039v-0.051h0.039v-0.039h0.051v-0.038h0.038v-0.051h0.038v-0.039h0.051v-0.039h0.077v-0.051
	h0.089v-0.038h0.039V16.48h0.09v-0.052h0.089V16.39h0.128v-0.038h0.076v-0.051h0.128v-0.039h0.089v-0.038h0.128v-0.051h0.127v-0.039
	h0.128v-0.039h0.127v-0.051h0.128v-0.039h0.128v-0.038h0.127v-0.052h0.128v-0.039h0.127V15.84h0.128v-0.05h0.127v-0.039h0.128
	v-0.039h0.127v-0.051h0.179v-0.038h0.128v-0.039h0.166v-0.051h0.217v-0.039h0.294v-0.038h0.255v0.038h0.217v0.039h0.128v0.051h0.038
	v0.039h0.09v0.038h0.038v0.051h0.051v0.039h0.038v0.039h0.038v0.05h0.051v0.077h0.039v0.089h0.038v0.089h0.051v0.077h0.038v0.089
	h0.039v0.127h0.051v0.217h-0.09v0.039h-0.127v0.039h-0.128v0.051h-0.127v0.038h-0.128v0.039h-0.128v0.051h-0.127v0.038h-0.128v0.039
	H40.73v-0.128h-0.039v-0.077h-0.051v-0.051h-0.077v-0.039h-0.383v0.039h-0.128v0.051h-0.128v0.038h-0.127v0.039H39.67v0.051h-0.127
	v0.038h-0.128v0.039h-0.128v0.051h-0.128v0.039h-0.127v0.038h-0.128v0.051h-0.127v0.039h-0.128v0.038h-0.089v0.051h-0.089v0.039
	h-0.077v0.039h-0.051v0.051h-0.038v0.038h-0.051v0.09h-0.038v0.077h-0.039v0.345h0.039v0.179h0.038v0.128h0.051v0.127h0.038v0.128
	h0.051v0.128h0.039v0.128h0.039v0.076h0.051v0.09h0.038v0.089h0.038v0.039h0.051v0.039h0.039v0.051h0.038v0.038h0.051v0.039h0.459
	v-0.039h0.128v-0.038h0.127v-0.051h0.128v-0.039h0.127v-0.039h0.128v-0.051h0.128v-0.038h0.128V18.87h0.127v-0.051h0.128v-0.038
	h0.127v-0.039h0.128v-0.051h0.128v-0.039h0.089v-0.038h0.127v-0.051h0.052v-0.039h0.076v-0.038h0.051v-0.09h0.039v-0.345h-0.039
	v-0.128h0.128v-0.039h0.127v-0.039h0.128v-0.051h0.127v-0.039h0.128v-0.051h0.128v-0.038h0.127V17.63h0.128v-0.051h0.076v-0.038
	h0.09v0.089h0.039v0.128h0.051v0.128h0.038v0.128h0.039v0.167h0.051v0.473h-0.051v0.128H42.48v0.089h-0.038v0.077h-0.051v0.051
	h-0.039v0.039h-0.039v0.039h-0.051v0.051h-0.038v0.038h-0.038v0.039h-0.051v0.051h-0.077v0.039h-0.051v0.038h-0.076v0.051h-0.09
	v0.039h-0.089v0.038h-0.077v0.051h-0.127v0.039H41.42v0.039h-0.127v0.051h-0.128v0.039h-0.127v0.038h-0.128v0.051h-0.14v0.039
	h-0.128v0.039h-0.128v0.05h-0.127v0.039h-0.128v0.038h-0.077v0.051h-0.128v0.038h-0.128v0.039h-0.127v0.051H39.67v0.039h-0.127
	v0.039h-0.128v0.051h-0.179v0.038H39.07v0.039h-0.167v0.051H38.175z M45.381,18.014v-0.038h-0.128v-0.051h-0.127v-0.039h-0.09
	v-0.039h-0.038v-0.051h-0.038v-0.039h-0.09v-0.051h-0.038V17.63H44.78v-0.051h-0.038v-0.038h-0.038v-0.09h-0.051v-0.039h-0.039
	v-0.089h-0.038v-0.077h-0.051v-0.128h-0.038V17.03h-0.039v-0.129h-0.051v-0.127h-0.039v-0.128h-0.038v-0.127H44.27V16.39h-0.039
	v-0.127h-0.038v-0.128h-0.051v-0.128h-0.038v-0.128h-0.038v-0.127h-0.051v-0.167h-0.039v-0.217h-0.039v-0.383h0.039v-0.179h0.039
	v-0.127h0.051V14.6h0.038v-0.051h0.038v-0.077h0.051v-0.051h0.038v-0.039h0.039v-0.039h0.051v-0.051h0.077v-0.039h0.051v-0.038
	h0.039v-0.051h0.089v-0.039h0.077v-0.039h0.051v-0.05h0.127v-0.039h0.077v-0.038h0.089V13.91h0.128v-0.038h0.089v-0.039h0.127
	v-0.051h0.128v-0.039h0.128v-0.038h0.127v-0.051h0.128v-0.039h0.127v-0.039h0.128v-0.051h0.127v-0.038h0.128v-0.039h0.128v-0.051
	h0.127V13.36h0.128v-0.039h0.128v-0.051h0.166v-0.038h0.127v-0.039h0.179v-0.051h0.166v-0.039h0.255v-0.038h0.473v0.038h0.166v0.039
	h0.089v0.051h0.089v0.039h0.039v0.038h0.038v0.051h0.051v0.039h0.038v0.038h0.039v0.09h0.051v0.038h0.039v0.089h0.038v0.09h0.051
	v0.077h0.039v0.127h0.038v0.128h0.051v0.179h-0.128v0.038h-0.128v0.039h-0.127v0.051h-0.128v0.039h-0.14v0.039h-0.128v0.051h-0.127
	v0.038h-0.128v0.039h-0.166v-0.128h-0.039v-0.077h-0.051v-0.051h-0.076v-0.039h-0.435v0.039h-0.128v0.051h-0.127v0.039h-0.128v0.039
	h-0.128v0.051h-0.127v0.038h-0.128v0.039h-0.127V14.6h-0.128v0.038h-0.128v0.039H46.02v0.051h-0.127v0.039h-0.128v0.038h-0.089
	v0.051h-0.076v0.038h-0.051v0.039h-0.039v0.051H45.47v0.038h-0.051v0.039h-0.038v0.089h-0.039v0.435h0.039v0.167h0.038v0.127h0.051
	v0.128h0.038v0.128h0.039v0.128h0.051v0.089h0.038v0.128h0.038v0.076h0.051v0.051h0.039v0.039h0.039v0.09h0.089v0.038h0.089v0.039
	h0.384v-0.039h0.128v-0.038h0.127v-0.051h0.128v-0.039h0.128v-0.039h0.127v-0.051h0.128v-0.038h0.127V16.48h0.128v-0.052h0.128
	V16.39h0.127v-0.038h0.128v-0.051h0.128v-0.039h0.09v-0.038h0.127v-0.051h0.077v-0.039h0.051v-0.039h0.038v-0.051h0.039v-0.076
	h0.051v-0.256h-0.051v-0.179h0.09v-0.039h0.127v-0.038h0.128v-0.051h0.128v-0.039h0.127v-0.039h0.128v-0.05h0.127V15.24h0.09v-0.051
	h0.127v-0.039h0.128v0.129h0.038v0.127h0.051v0.128h0.038v0.127h0.039v0.217h0.051v0.294h-0.051v0.179h-0.039v0.077H49.61v0.09
	h-0.051v0.089h-0.038v0.039h-0.038v0.039h-0.051v0.051h-0.039v0.038h-0.038v0.039h-0.089v0.051h-0.039v0.038h-0.089v0.039h-0.089
	v0.051h-0.077v0.039h-0.089v0.038h-0.089v0.051h-0.128v0.039h-0.128v0.038h-0.127v0.051h-0.128v0.039h-0.127v0.039h-0.128v0.051
	h-0.127v0.038H47.77v0.039h-0.128v0.051h-0.127v0.039h-0.128v0.038h-0.128v0.051h-0.089v0.039h-0.127v0.038h-0.128v0.051h-0.128
	v0.039h-0.127v0.051h-0.166v0.039h-0.128v0.039h-0.166v0.051h-0.218v0.038H45.381z M51.82,16.006v-0.089h0.051V15.84h0.038v-0.089
	h0.038v-0.128h0.051v-0.089h0.039v-0.077h0.038v-0.09h0.051v-0.089h0.038v-0.09h0.039v-0.077h0.051v-0.09h0.039v-0.089h0.038v-0.077
	h0.051v-0.089h0.038v-0.089h0.039V14.6h0.051v-0.089h0.039v-0.089h0.038v-0.128h0.051v-0.077h0.039v-0.09h0.039v-0.089h0.051v-0.077
	h0.038v-0.089h0.038v-0.089h0.051v-0.077h0.039v-0.09h0.039v-0.089h0.051v-0.077H52.97v-0.051h-0.039V13.36h-0.089v-0.039h-0.076
	v-0.051h-0.09v-0.038h-0.089v-0.039h-0.038v-0.051h-0.089v-0.039h-0.077v-0.038h-0.089v-0.051h-0.09v-0.039h-0.077v-0.039h-0.051
	v-0.051h-0.077v-0.038H51.91v-0.038H51.82v-0.051h-0.077v-0.038h-0.051V12.67h-0.077v-0.039h-0.089v-0.039h-0.089v-0.051H51.36
	v-0.038h-0.051v-0.038h-0.076v-0.051h-0.09v-0.039h-0.089v-0.039h-0.089v-0.051h-0.039v-0.038h-0.089v-0.038H50.76v-0.051h-0.09
	V12.12h-0.039v-0.09h0.205v-0.039h0.128v-0.038h0.14v-0.052h0.128v-0.038h0.127v-0.039h0.128v-0.051h0.127v-0.038h0.128v-0.039
	h0.128v-0.051h0.127v-0.038h0.255v0.038h0.077v0.051h0.051v0.039h0.077v0.038h0.089v0.051h0.089v0.039h0.039v0.038h0.09v0.052h0.076
	v0.038h0.089v0.039h0.039v0.051h0.089v0.039h0.089v0.038h0.038v0.051h0.09v0.038h0.077v0.038h0.089v0.051h0.038v0.039h0.09v0.039
	h0.089v0.051h0.089v0.038h0.077v-0.038h0.051v-0.09h0.038v-0.128h0.038v-0.089h0.052v-0.077h0.038v-0.127h0.038v-0.09h0.051v-0.09
	h0.038v-0.128h0.039V11.57h0.051v-0.09h0.038v-0.127h0.038v-0.089h0.051v-0.077h0.039v-0.127h0.038v-0.09h0.051V10.88h0.038v-0.128
	h0.089v-0.039h0.128v-0.038h0.128v-0.051h0.128v-0.039h0.127v-0.038h0.128v-0.051h0.127v-0.039h0.128V10.42h0.127v-0.051h0.128
	V10.33h0.127v-0.039h0.077V10.24h0.128v0.09h-0.039v0.039h-0.038v0.089h-0.051v0.09H55.96v0.128h-0.039v0.077H55.87v0.089h-0.038
	v0.128h-0.038v0.09h-0.051v0.076h-0.039v0.089h-0.039v0.128h-0.051v0.09h-0.038v0.077h-0.039v0.089h-0.051v0.128h-0.039v0.089H55.41
	v0.077h-0.051v0.089h-0.038v0.128h-0.039v0.089h-0.051v0.076h-0.039v0.09h-0.038v0.128h-0.051v0.089h-0.038v0.077h-0.039v0.141
	h0.039v0.038h0.089v0.038h0.077v0.051h0.09v0.039h0.089v0.039h0.077v0.051h0.09v0.038h0.089v0.039h0.077v0.051h0.089v0.039h0.089
	v0.038h0.077v0.051h0.089v0.039h0.039v0.038h0.089v0.051h0.089v0.039h0.089v0.038h0.077v0.051h0.089v0.039h0.089v0.039h0.077v0.051
	h0.09v0.038h0.089v0.039h0.077v0.051h0.089v0.039h0.089v0.038h0.077v0.051h0.09v0.038h0.089v0.039h0.128v0.089h-0.089v0.039h-0.127
	v0.051h-0.128v0.038h-0.127v0.039h-0.128v0.051h-0.127v0.039h-0.128v0.039H56.56v0.051h-0.127v0.038h-0.128v0.039h-0.128V14.6
	h-0.127v0.038h-0.128V14.6h-0.089v-0.051h-0.089v-0.039h-0.039v-0.038h-0.089v-0.051h-0.077v-0.039h-0.09v-0.039h-0.089v-0.051
	h-0.038v-0.039h-0.09v-0.038h-0.077v-0.051h-0.089v-0.039h-0.09v-0.039h-0.038v-0.05h-0.089v-0.039h-0.077v-0.038h-0.089V13.91
	h-0.089v-0.038h-0.039v-0.039h-0.089v-0.051h-0.077v-0.039h-0.089v-0.038h-0.128v0.077h-0.038v0.089h-0.051v0.089h-0.038v0.077
	h-0.038v0.127h-0.052v0.089h-0.038v0.089h-0.038v0.077h-0.051v0.128h-0.038v0.089H53.75v0.09h-0.051v0.128H53.66v0.077h-0.039v0.089
	h-0.051v0.09h-0.039v0.128h-0.051v0.089h-0.038v0.077h-0.039v0.089h-0.051v0.039h-0.128v0.051h-0.127v0.039H52.97v0.038h-0.128
	v0.051h-0.127v0.039h-0.128v0.039h-0.127v0.05h-0.128v0.039h-0.128v0.039h-0.128v0.052h-0.128v0.038H51.82z M37.358,24.163v-0.051
	h-0.039v-0.039h-0.039v-0.089h-0.051v-0.128h0.09v-0.039h0.166V23.78h0.179v-0.051h0.167V23.69h0.166v-0.038h0.178v-0.051h0.167
	v-0.039h0.128v-0.038h0.179v-0.051h0.166v-0.038h0.166v-0.039h0.179v-0.05h0.167v-0.039h0.166v-0.038h0.128v-0.052h0.179v-0.038
	h0.166V23.14h0.167v-0.05h0.179v-0.039h0.127v-0.038h0.167v-0.051h0.166v-0.038h0.14v-0.051h0.167v-0.039h0.166v-0.038h0.127v-0.051
	h0.179v-0.039h0.166v-0.038h0.127v-0.051h0.166v-0.038h0.179V22.54h0.127v-0.051h0.166V22.45h0.128v-0.038h0.166v-0.051h0.128
	v-0.039h0.179v-0.038h0.166v-0.051h0.128v-0.039h0.179v-0.039h0.127v-0.051h0.167v-0.039h0.127v-0.038h0.128v-0.051h0.166v-0.039
	h0.128V21.9h0.179v-0.05h0.128v-0.039h0.166v-0.038h0.128v-0.051h0.128v-0.039h0.166v-0.039h0.128v-0.05h0.128v-0.039h0.178v-0.039
	h0.128v-0.051h0.127v-0.038h0.167v-0.039h0.128v-0.05h0.128v-0.039h0.179v-0.038h0.128v-0.052h0.127v-0.038h0.128v-0.039h0.166
	v-0.051h0.127v-0.038h0.128v-0.039h0.128v-0.051h0.127v-0.039h0.166v-0.038h0.128v-0.051h0.127v-0.039h0.128V20.75h0.127v-0.051
	h0.128V20.66h0.14v-0.039h0.167V20.57h0.128v-0.038h0.128v-0.039h0.127v-0.051h0.128v-0.039h0.127v-0.051h0.128v-0.039h0.127v-0.038
	h0.128v-0.051h0.127v-0.039h0.128v-0.039h0.128v-0.051h0.127v-0.039h0.128v-0.038h0.128V19.97h0.127v-0.038h0.128v-0.039h0.127
	v-0.05h0.128v-0.039h0.128v-0.039h0.127v-0.051h0.128v-0.038h0.128v-0.039h0.127v-0.051h0.089v-0.039h0.128v-0.039h0.128v-0.051
	h0.127V19.42h0.128v-0.039h0.127v-0.051h0.128v-0.038h0.089v-0.039h0.128v-0.051h0.127v-0.039h0.128v-0.038h0.127v-0.051h0.077
	v-0.039h0.128v-0.039h0.127v-0.051h0.141v-0.038h0.077V18.87h0.128v-0.051h0.127v-0.038h0.09v-0.039h0.127v-0.051h0.128v-0.039
	h0.128v-0.038h0.089v-0.051h0.127v-0.039h0.128v-0.038h0.077v-0.051h0.127v-0.039h0.09v-0.038h0.127v-0.051h0.128V18.27h0.089
	v-0.038h0.128V18.18h0.077v-0.039h0.128v-0.038h0.089v-0.051h0.128v-0.039h0.089v-0.038h0.127v-0.051h0.09v-0.039h0.127v-0.039
	h0.077v-0.051h0.128v-0.039h0.089v-0.051h0.128v-0.038h0.089V17.63h0.128v-0.051h0.077v-0.038h0.089v-0.039h0.128v-0.051h0.089
	v-0.039h0.077v-0.038h0.128v-0.051h0.089v-0.039h0.089v-0.039h0.128v-0.051h0.077v-0.038h0.09v-0.039h0.127v-0.051h0.09V17.03h0.077
	v-0.039h0.089V16.94h0.09v-0.039h0.127v-0.038h0.09v-0.051h0.076v-0.039h0.089v-0.038h0.09v-0.051h0.076v-0.039h0.09v-0.039h0.089
	v-0.051h0.077v-0.038h0.089V16.48h0.089v-0.052h0.077V16.39h0.089v-0.038h0.089v-0.051h0.077v-0.039h0.089v-0.038h0.09v-0.051h0.077
	v-0.039h0.089v-0.039h0.039v-0.051h0.09v-0.039h0.089v-0.038h0.039v-0.052h0.128v1.113h-0.038v0.345h-0.051v0.255h-0.039v0.256
	h-0.039v0.128h-0.051v0.127h-0.038v0.128h-0.039v0.166h-0.051v0.128h-0.039v0.128h-0.038v0.09h-0.051v0.089h-0.039v0.077h-0.038
	v0.051H60.01v0.039h-0.205v-0.039h-0.089v-0.089h-0.038v-0.294h-0.051v-0.218h-0.039V18.27H59.55v-0.038h-0.051V18.18H59.46v-0.039
	h-0.038v-0.038h-0.09v-0.051h-0.127v-0.039h-0.421v0.039h-0.179v0.051h-0.128v0.038h-0.127v0.039h-0.128v0.051h-0.127v0.038h-0.128
	v0.038h-0.089v0.051h-0.128v0.038h-0.127v0.039h-0.128v0.051h-0.077v0.038h-0.127v0.039h-0.128v0.051h-0.089v0.038h-0.128v0.039
	h-0.127v0.051h-0.128v0.039h-0.089v0.038h-0.128v0.051h-0.127v0.039h-0.128v0.038h-0.089v0.051h-0.128v0.039H55.87v0.039h-0.127
	v0.051h-0.128v0.038h-0.077v0.039H55.41v0.051h-0.127v0.039h-0.128v0.038h-0.127v0.051h-0.128v0.039h-0.128v0.038h-0.128v0.051
	h-0.127v0.039h-0.128v0.039h-0.127v0.051h-0.128v0.039h-0.127v0.038h-0.128v0.051H53.75v0.039h-0.128v0.039h-0.141v0.05h-0.127
	v0.039h-0.128v0.038h-0.127v0.051H52.97v0.038h-0.128v0.039h-0.127v0.051h-0.166v0.039H52.42v0.039h-0.127v0.051h-0.128v0.038
	h-0.127v0.039h-0.166v0.051h-0.128v0.039h-0.128v0.051h-0.127v0.039h-0.179v0.038h-0.127v0.051h-0.128v0.039h-0.167v0.038H50.76
	v0.051h-0.128v0.039h-0.179v0.039h-0.128v0.051h-0.127v0.038h-0.166v0.039h-0.128v0.051h-0.166v0.039H49.61v0.038h-0.127v0.051
	h-0.179v0.039h-0.128v0.038H49.01v0.052h-0.128v0.038h-0.166v0.039h-0.128v0.05h-0.178v0.039h-0.166v0.038h-0.128v0.051h-0.179
	v0.039h-0.128v0.039h-0.166v0.05h-0.166v0.039h-0.127v0.039h-0.179v0.051h-0.127v0.038h-0.166v0.039H46.71v0.05h-0.179v0.039h-0.127
	v0.039h-0.167v0.051h-0.166v0.038h-0.128v0.039h-0.179v0.051h-0.166v0.039h-0.179v0.039h-0.167v0.051h-0.127v0.038h-0.166v0.039
	H44.78v0.051h-0.166v0.038h-0.166v0.039H44.27v0.051h-0.166v0.039h-0.167v0.038H43.81v0.051h-0.179v0.038h-0.167v0.039h-0.179v0.051
	H43.12v0.038h-0.167v0.039h-0.179v0.051h-0.166v0.038h-0.166v0.051h-0.179v0.038h-0.166v0.039h-0.166v0.05h-0.217v0.039h-0.166
	v0.038h-0.179v0.052h-0.166v0.038h-0.166v0.039h-0.179v0.05h-0.167v0.039h-0.179v0.038h-0.204v0.051H40.13v0.038h-0.167v0.039
	h-0.166v0.051h-0.179v0.038h-0.205v0.039h-0.179v0.051H39.07v0.038h-0.167v0.039h-0.217v0.051h-0.166v0.039h-0.179v0.039h-0.217
	v0.051h-0.166v0.038h-0.166v0.039h-0.217v0.051H37.358z M34.036,15.149v-0.038h-0.038v-0.345h0.077v-0.039h0.089v-0.051h0.089
	v-0.039h0.077V14.6h0.089v-0.051h0.089v-0.039h0.077v-0.038h0.089v-0.051h0.09v-0.039h0.077v-0.039h0.089v-0.051h0.09v-0.039h0.077
	v-0.038h0.089v-0.051h0.09v-0.039h0.076v-0.039h0.09v-0.05h0.089v-0.039h0.077v-0.038h0.089V13.91h0.089v-0.038h0.089v-0.039h0.077
	v-0.051h0.09v-0.039h0.089v-0.038h0.077v-0.051h0.09v-0.039h0.089v-0.039h0.077v-0.051h0.089v-0.038h0.089v-0.039h0.077v-0.051
	h0.089V13.36h0.089v-0.039h0.077v-0.051h0.09v-0.038h0.089v-0.039h0.076v-0.051h0.09v-0.039h0.089v-0.038h0.077v-0.051h0.09v-0.039
	h0.089v-0.039h0.077v-0.051h0.089v-0.038h0.089v-0.038h0.077v-0.051h0.089v-0.038h0.089V12.67h0.077v-0.039h0.089v-0.039h0.089
	v-0.051h0.09v-0.038h0.076v-0.038h0.09v-0.051h0.089v-0.039h0.077v-0.039h0.089v-0.051h0.089v-0.038h0.077v-0.038h0.089v-0.051
	h0.128V12.12h0.089v-0.039h0.077V12.03h0.09v-0.039h0.089v-0.038h0.077v-0.052h0.09v-0.038h0.089v-0.039h0.077v-0.051h0.089v-0.038
	h0.089v-0.039h0.077v-0.051h0.089v-0.038h0.127V11.57h0.09v-0.051h0.077V11.48h0.089v-0.038h0.09v-0.051h0.089v-0.039h0.077v-0.038
	h0.09v-0.051h0.089v-0.039h0.077v-0.038h0.127v-0.051h0.09v-0.038h0.089v-0.038h0.076v-0.052h0.09v-0.039h0.089v-0.038h0.077V10.88
	h0.089v-0.039h0.128v-0.038h0.089v-0.051h0.076v-0.039h0.09v-0.038h0.089v-0.051h0.077v-0.039h0.089v-0.038h0.128v-0.051h0.089
	v-0.039h0.077V10.42h0.089v-0.051h0.09V10.33h0.077v-0.039h0.127V10.24h0.09v-0.038h0.089v-0.051h0.09v-0.038h0.077v-0.039h0.127
	v-0.051h0.09V9.985h0.089V9.946h0.077V9.895h0.089V9.857h0.127V9.818h0.09V9.768h0.077V9.729h0.089V9.691h0.127V9.64h0.09V9.601
	h0.076V9.563h0.089V9.512h0.128V9.473h0.089V9.435h0.077V9.384h0.089V9.346h0.128V9.307h0.089V9.256h0.077V9.217h0.089V9.179h0.127
	V9.128h0.09V9.09h0.089V9.052h0.128V9h0.077V8.962h0.089V8.923h0.09V8.873h0.127V8.834h0.077V8.796h0.089V8.745h0.128V8.706h0.089
	V8.667h0.077v-0.05h0.128V8.578h0.089V8.54h0.089V8.489h0.128V8.451h0.077V8.412h0.127v-0.05h0.089V8.323h0.09V8.285h0.127V8.233
	h0.077V8.195h0.127V8.156h0.09V8.105h0.089V8.067h0.127V8.028h0.077V7.977h0.14V7.939h0.077V7.901h0.128V7.85h0.089V7.812h0.089
	V7.773h0.128V7.722h0.076V7.683h0.128V7.645h0.089V7.594h0.128V7.556h0.089V7.504h0.128V7.466h0.127V7.428h0.077V7.377h0.127V7.338
	h0.09V7.3h0.127V7.249h0.089V7.21h0.128V7.172h0.127V7.121h0.077V7.083h0.127V7.044h0.089V6.993h0.128V6.955h0.128V6.916h0.089
	v-0.05h0.128V6.827h0.127V6.789h0.089V6.737h0.128V6.699h0.128V6.661h0.127V6.609h0.077V6.571h0.128V6.533h0.128V6.481h0.128V6.443
	h0.089V6.405h0.127V6.354h0.128V6.315h0.127V6.277h0.128V6.226h0.089V6.188h0.128V6.149h0.127V6.098h0.128V6.06h0.128V6.021h0.089
	V5.97h0.128V5.932h0.076V5.894h0.128V5.842h0.089V5.804h0.09V5.766h0.076V5.714h0.09V5.676h0.038V5.638h0.051V5.586h0.038V5.548
	h0.039V5.51h0.051V5.459h0.039V5.382h0.038V5.293h0.051V5.037H54.72V4.909h-0.038V4.82h-0.039V4.73h-0.051V4.692h-0.039V4.653
	h-0.038V4.564h-0.051v-0.09h-0.038V4.347h0.038V4.309h0.051V4.27h0.038V4.219h0.256V4.27h0.089v0.039h0.076v0.038h0.052v0.051h0.077
	v0.039h0.089v0.038h0.039v0.051h0.09v0.039h0.038v0.039h0.089v0.051h0.09v0.039h0.039V4.73h0.089v0.051h0.039V4.82h0.039v0.038
	h0.051v0.051h0.076v0.039h0.051v0.038h0.039v0.051h0.038v0.039h0.051v0.051h0.038v0.038h0.039v0.039h0.089v0.051h0.051v0.039h0.038
	v0.038h0.039v0.051h0.051V5.42h0.039v0.039h0.038V5.51h0.051v0.038h0.038v0.038h0.039v0.052h0.051v0.038h0.039v0.089h0.038v0.039
	h0.051v0.038h0.039v0.051h0.038v0.038h0.051v0.09h0.039V6.06h0.039v0.038h0.051v0.127h-0.051v0.051h-0.256v0.039h-0.204v0.039
	h-0.217v0.051h-0.217v0.039h-0.167v0.038h-0.178v0.051h-0.166v0.039H55.41v0.038h-0.179v0.051h-0.166v0.039h-0.128v0.038h-0.166
	v0.051h-0.128v0.038h-0.179v0.039h-0.128v0.05h-0.166v0.039h-0.127v0.039h-0.166v0.051H53.75v0.038h-0.128v0.039h-0.141v0.051
	h-0.166V7.21h-0.128v0.038H53.06V7.3h-0.128v0.038h-0.127v0.039h-0.128v0.051h-0.127v0.038H52.42v0.039h-0.127v0.052h-0.167v0.038
	h-0.128v0.051H51.91v0.038h-0.128v0.039h-0.127v0.051h-0.128v0.039h-0.127V7.85h-0.128v0.051h-0.128v0.038h-0.127v0.038h-0.128
	v0.051H50.76v0.039h-0.128v0.038h-0.089v0.051h-0.128v0.039h-0.128v0.038H50.16v0.052h-0.128v0.038h-0.089v0.039h-0.128v0.05h-0.127
	v0.039h-0.128v0.038h-0.076V8.54h-0.128v0.038h-0.128v0.039h-0.127v0.05H49.01v0.039h-0.128v0.039h-0.128v0.051h-0.089v0.038h-0.128
	v0.039h-0.127v0.051h-0.09v0.039h-0.127V9h-0.128v0.051h-0.076V9.09h-0.128v0.039H47.77v0.051h-0.128v0.038h-0.127v0.039h-0.089
	v0.051h-0.128v0.039h-0.077v0.038h-0.127v0.051h-0.128v0.038h-0.089v0.039h-0.128v0.051h-0.089v0.038h-0.128V9.64h-0.077v0.051
	h-0.127v0.038h-0.09v0.039h-0.127v0.051h-0.09v0.039h-0.127v0.038h-0.089v0.051h-0.128v0.039h-0.076v0.038H45.47v0.051h-0.089v0.039
	h-0.128v0.038h-0.089v0.051h-0.128v0.038h-0.076v0.051h-0.128v0.039h-0.089v0.039h-0.089v0.051h-0.128v0.038h-0.077v0.039h-0.127
	v0.051h-0.09v0.038h-0.127v0.039h-0.089v0.051h-0.077v0.038H43.81v0.039h-0.09v0.051h-0.127v0.038h-0.089v0.039h-0.077v0.051h-0.141
	v0.038h-0.077v0.039H43.12v0.052h-0.128v0.038h-0.089v0.038h-0.128v0.051h-0.077v0.038h-0.089v0.039H42.48v0.051h-0.089v0.038
	h-0.077v0.039h-0.127v0.051h-0.089v0.038h-0.09v0.039h-0.127v0.051h-0.077v0.038h-0.089v0.038h-0.128v0.051h-0.089v0.039H41.42
	v0.038h-0.089v0.051h-0.128v0.039h-0.089v0.038h-0.076v0.052h-0.128v0.038H40.82v0.039h-0.09v0.051h-0.089v0.039h-0.128v0.038
	h-0.077v0.051h-0.089v0.038h-0.089v0.038H40.13v0.051h-0.077v0.039h-0.089v0.039h-0.089v0.051h-0.128v0.038H39.67v0.038h-0.089
	v0.051h-0.09v0.039h-0.127v0.039h-0.077v0.051h-0.089v0.038h-0.089v0.051h-0.077v0.038h-0.128v0.038h-0.089v0.051h-0.089v0.039
	h-0.077v0.039h-0.089v0.051h-0.128v0.038h-0.089v0.039h-0.089v0.051h-0.077v0.039h-0.089v0.038h-0.128v0.051h-0.089v0.039h-0.076
	v0.038h-0.09v0.051h-0.089v0.039h-0.077v0.038h-0.128v0.051h-0.089v0.039h-0.09v0.039h-0.076v0.051h-0.089v0.038h-0.09v0.039h-0.077
	v0.051H36.77v0.039h-0.09v0.038h-0.089v0.051h-0.077v0.038h-0.09v0.039h-0.089v0.05h-0.077v0.039h-0.089v0.039h-0.127v0.051h-0.09
	v0.038h-0.077v0.039h-0.089v0.051h-0.089v0.039h-0.089v0.039h-0.077v0.051h-0.089v0.038h-0.09v0.039h-0.076V14.6h-0.128v0.038
	h-0.089v0.039h-0.089v0.051h-0.077v0.039h-0.089v0.038h-0.09v0.051h-0.077v0.038h-0.089v0.039h-0.09v0.051h-0.076v0.038h-0.09v0.039
	h-0.089v0.051h-0.076v0.038H34.036z M18.768,22.156v-0.051h-0.089v-0.077h-0.038v-0.051h-0.051V21.9h-0.039v-0.089h-0.038v-0.089
	h-0.051v-0.127h-0.038v-0.128h-0.039v-0.204h-0.051v-0.256h-0.038v-0.946h0.038v-0.217h0.051v-0.128h0.039v-0.077h0.038v-0.051
	h0.051v-0.039h0.205v0.039h0.089v0.089h0.038v0.038h0.051v0.09h0.039v0.089h0.038v0.077h0.051v0.128h0.038v0.128h0.039v0.179h0.051
	v0.256h0.039v1.022h-0.039v0.167h-0.051v0.127h-0.039v0.089h-0.038v0.039h-0.051v0.051H18.768z M21.796,19.932v-0.039h-0.179v-0.05
	H21.49v-0.039h-0.077v-0.039h-0.051v-0.051h-0.077v-0.038h-0.051v-0.039h-0.077v-0.051h-0.051v-0.039h-0.039v-0.039h-0.039v-0.051
	h-0.051V19.42H20.94v-0.039h-0.039v-0.089h-0.051v-0.039h-0.038v-0.09h-0.039v-0.038h-0.051v-0.089h-0.039v-0.09h-0.038V18.87
	h-0.051v-0.127h-0.038v-0.128h-0.039v-0.256h-0.051v-0.218h0.051v-0.217h0.039v-0.077h0.038v-0.089h0.051v-0.051h0.038v-0.038h0.039
	V17.63h0.051v-0.051h0.039v-0.038h0.089v-0.039h0.511v0.039h0.127v0.038h0.077v0.051h0.089v0.039h0.039v0.038h0.089v0.051h0.039
	v0.039h0.051v0.051h0.039v0.039H22v0.039h0.051v0.051h0.039v0.038h0.038v0.039h0.051v0.051h0.039v0.077h0.039v0.051h0.051v0.076
	h0.039v0.089h0.038v0.09h0.051v0.077h0.038v0.128h0.039v0.179h0.051v0.55h-0.051v0.127h-0.039v0.089h-0.038v0.039h-0.051v0.038
	h-0.038v0.051h-0.039v0.039h-0.051v0.039h-0.077v0.05H22v0.039H21.796z M25.374,30.901v-0.039h-0.089v-0.038h-0.077v-0.051h-0.051
	v-0.039H25.08v-0.038h-0.051v-0.051H24.99v-0.089h-0.039v-0.039h-0.051v-0.039h-0.038V30.39h-0.039V30.3h-0.051v-0.077h-0.039
	v-0.089h-0.038v-0.127h-0.051V29.84h-0.039v-0.767h0.039v-0.179h0.051v-0.128h0.038v-0.076h0.039v-0.051h0.051v-0.077h0.039V28.51
	h0.038v-0.038h0.051v-0.038h0.039v-0.051h0.038v-0.038h0.051v-0.039h0.077v-0.052h0.472v0.052h0.089v0.039h0.039v0.038h0.089v0.051
	h0.039v0.038h0.051v0.038h0.038v0.051h0.039V28.6h0.051v0.09h0.038v0.038h0.039v0.089h0.051v0.077h0.039v0.128h0.039v0.128h0.051
	v0.179h0.039v0.768h-0.039v0.166h-0.051v0.089h-0.039v0.077h-0.039v0.09H26.14v0.089h-0.039v0.039h-0.038v0.051h-0.051v0.038h-0.039
	v0.039h-0.038v0.051h-0.089v0.038h-0.089v0.039H25.374z M19.663,26.886v-0.038h-0.089V26.81h-0.039v-0.051h-0.051V26.72h-0.038
	v-0.038h-0.038v-0.051h-0.051v-0.077h-0.038v-0.051h-0.039v-0.076h-0.051v-0.089H19.19v-0.09h-0.039V26.17h-0.051v-0.089h-0.039
	v-0.09h-0.038v-0.127h-0.051v-0.077h-0.038v-0.128h-0.039v-0.128h-0.051v-0.179h-0.038v-0.167h-0.039V24.93h-0.051v-0.345h0.051
	v-0.128h0.039v-0.038h0.166v0.038h0.089v0.039h0.039v0.051h0.051v0.077h0.039v0.051h0.038v0.038h0.051v0.089h0.039v0.077h0.038
	v0.051h0.051v0.077h0.038v0.09h0.038v0.089h0.051v0.127h0.039v0.077h0.038v0.141h0.051v0.128h0.038v0.128h0.039v0.127h0.051v0.205
	h0.038v0.256h0.038v0.307h-0.038v0.127h-0.038v0.039h-0.051v0.038H19.663z M21.707,26.208V26.17h-0.089v-0.051h-0.077v-0.038H21.49
	v-0.039h-0.077v-0.051h-0.051v-0.039h-0.039v-0.038h-0.038v-0.051h-0.051v-0.039h-0.038v-0.038h-0.039v-0.09h-0.051v-0.038h-0.039
	v-0.09h-0.039v-0.038h-0.051v-0.09H20.94v-0.089h-0.039v-0.09h-0.051v-0.076h-0.038v-0.128h-0.039V24.93h-0.051v-0.179h-0.039
	v-0.255h-0.038v-0.383h0.038v-0.205h0.039V23.78h0.051v-0.09h0.039v-0.089h0.038v-0.039h0.051v-0.038h0.039v-0.051h0.089v-0.038
	h0.384v0.038h0.077v0.051h0.089v0.038h0.089v0.039h0.038v0.051h0.039v0.038h0.051v0.039h0.038v0.051h0.039v0.038h0.051v0.039h0.039
	v0.089H22v0.039h0.051v0.051h0.039v0.077h0.038v0.089h0.051v0.09h0.039v0.077h0.039v0.089h0.051v0.128h0.039v0.128h0.038v0.166
	h0.051v0.307h0.038v0.294h-0.038v0.256h-0.051v0.128h-0.038v0.089h-0.039v0.039h-0.051v0.09h-0.039v0.038h-0.089v0.051h-0.077v0.038
	H21.707z M25.157,25.058v-0.051h-0.128v-0.039h-0.077V24.93h-0.089v-0.051h-0.09v-0.038h-0.039v-0.039h-0.038v-0.051h-0.051v-0.038
	h-0.039v-0.038h-0.038v-0.051h-0.051v-0.039h-0.039v-0.038h-0.038v-0.051H24.39v-0.077h-0.039v-0.051h-0.039v-0.077h-0.051V24.24
	h-0.038v-0.077h-0.039v-0.089h-0.051v-0.128h-0.038v-0.089h-0.039V23.69h-0.051v-0.166h-0.038v-0.729h0.038v-0.179h0.051v-0.128
	h0.039v-0.077h0.038v-0.051h0.051v-0.077h0.039v-0.051h0.038v-0.039h0.051v-0.039h0.039v-0.051h0.039v-0.039h0.089v-0.038h0.128
	v-0.051h0.473v0.051h0.128v0.038h0.077v0.039h0.089v0.051h0.039v0.039h0.089v0.039h0.051v0.051h0.039v0.038h0.038v0.039h0.051v0.051
	h0.038v0.038h0.039v0.039h0.051v0.051h0.038v0.077h0.039v0.051h0.051v0.077h0.038v0.051h0.039v0.077h0.051v0.089h0.038v0.128h0.039
	v0.127h0.051v0.128h0.039v0.179h0.039v0.716h-0.039v0.179h-0.039v0.077H26.14v0.128h-0.039v0.051h-0.038v0.076h-0.051v0.051h-0.039
	v0.039h-0.038v0.038h-0.051v0.051h-0.077v0.038h-0.051v0.039h-0.128v0.051H25.157z M25.974,34.276v-0.039h-0.255v-0.051h-0.255
	v-0.039h-0.179V34.11h-0.166v-0.051l-0.128,0v-0.038l-0.127,0v-0.038h-0.128v-0.051h-0.127v-0.039h-0.089v-0.039H24.39v-0.051
	l-0.077,0v-0.038h-0.089v-0.039h-0.127v-0.052l-0.09,0v-0.039H23.93v-0.038h-0.09l0-0.051h-0.089v-0.039h-0.077v-0.038h-0.051V33.42
	l-0.077,0v-0.038h-0.089v-0.039l-0.09,0l0-0.051l-0.039,0v-0.038H23.24v-0.039h-0.077v-0.051h-0.051v-0.038l-0.077,0v-0.051
	l-0.051,0l-0.001-0.038l-0.089,0v-0.038h-0.038v-0.051h-0.039v-0.038l-0.09,0V32.87H22.69v-0.051h-0.089l0-0.039h-0.038v-0.038
	h-0.051v-0.051h-0.077v-0.039h-0.051v-0.039h-0.038v-0.051h-0.039v-0.038h-0.089v-0.039h-0.039v-0.051h-0.051v-0.039H22.09v-0.038
	h-0.038v-0.051h-0.089v-0.038h-0.039v-0.038h-0.051l0-0.052h-0.127v0.052h-0.077v0.038h-0.089v0.038h-0.166v0.051h-0.435v0.038
	h-0.511v0.039h-0.473v0.051l-0.255,0v-0.051h-0.166v-0.039h-0.128v-0.038h-0.038v-0.051h-0.09v-0.039l-0.038,0v-0.038h-0.051
	l0-0.052H19.19v-0.038h-0.039v-0.089h-0.051l0-0.077h-0.038v-0.089h-0.039l0-0.217h-0.051v-0.511h-0.038v-0.461l-0.039,0.001v-0.729
	h0.039l0-0.128h0.039V29.75h0.051l0-0.039h0.038v-0.09h0.039l0-0.038h0.051v-0.051h0.077v-0.038l0.051,0v-0.038h0.077v-0.051h0.089
	v-0.128h-0.038V29.2h-0.051v-0.089h-0.038v-0.038h-0.039v-0.09h-0.051v-0.089H19.19v-0.038h-0.039v-0.089L19.1,28.765l0-0.076
	h-0.039V28.6h-0.039v-0.039h-0.051v-0.089h-0.038v-0.089h-0.039v-0.077h-0.051v-0.089h-0.038v-0.09h-0.039l0-0.038h-0.051v-0.09
	l-0.039,0v-0.09h-0.038v-0.077h-0.051v-0.09l-0.038,0v-0.089h-0.039v-0.128l-0.051,0v-0.077h-0.038v-0.089h-0.039v-0.089h-0.051
	v-0.077l-0.039,0l0-0.128h-0.039v-0.089h-0.051v-0.09h-0.038l0-0.128h-0.038v-0.076l-0.051,0v-0.089H18.04v-0.128l-0.039,0v-0.127
	h-0.051v-0.089l-0.039,0v-0.128h-0.038v-0.128l-0.051,0v-0.077h-0.039v-0.127h-0.051v-0.128l-0.039,0v-0.128h-0.038V25.39l-0.051,0
	v-0.128h-0.038l0-0.166l-0.038-0.001v-0.127l-0.051,0v-0.128h-0.038v-0.166h-0.039l0-0.179H17.35V24.33h-0.039v-0.166l-0.038,0
	v-0.179h-0.051v-0.167h-0.038V23.6l-0.039,0.001v-0.206h-0.051V23.14h-0.038v-0.268h-0.038v-0.256h-0.051v-0.332h-0.039V21.85H16.89
	v-0.588h-0.051v-1.419h0.051v-0.55l0.038,0v-0.384l0.039,0v-0.294h0.051l0-0.256h0.038v-0.218h0.039v-0.166h0.051v-0.218h0.039
	l0-0.179l0.039,0v-0.128h0.051v-0.166h0.038v-0.128h0.039V17.03h0.051v-0.129h0.038v-0.127h0.039l0-0.089h0.051v-0.128h0.038V16.48
	h0.039v-0.128h0.051v-0.089h0.038l0-0.089h0.038v-0.077h0.051v-0.089h0.039v-0.089h0.051l0-0.077h0.038v-0.089h0.039v-0.09h0.051
	v-0.077h0.038v-0.052h0.038v-0.076h0.051v-0.09h0.039l0-0.039h0.039V15.24h0.051v-0.051h0.038v-0.077h0.039l0-0.051h0.051v-0.039
	h0.039v-0.089h0.038v-0.039h0.051v-0.038h0.038l0-0.09l0.038,0v-0.039h0.051v-0.051h0.038l0-0.039h0.039V14.6h0.051v-0.051l0.039,0
	v-0.039h0.039l0-0.089h0.051v-0.039h0.039v-0.039h0.038v-0.051h0.089v-0.039h0.039v-0.038h0.051v-0.051h0.039v-0.039h0.038v-0.039
	h0.051v-0.051l0.038,0.001l0-0.039h0.089v-0.038l0.038,0V13.91h0.039l0-0.038h0.09v-0.039h0.038v-0.051l0.09,0v-0.038h0.038v-0.038
	h0.089v-0.051h0.038v-0.039h0.09v-0.039h0.089v-0.051l0.077,0v-0.038l0.089,0v-0.039h0.089v-0.05l0.077-0.001V13.36h0.089v-0.039
	h0.128v-0.051h0.127v-0.039h0.128v-0.038h0.128v-0.051h0.179v-0.039h0.205v-0.038h0.307v-0.051h1.15v0.051h0.294v0.038l0.217,0
	v0.038h0.166v0.051h0.179v0.039l0.128-0.001l0,0.039h0.167v0.051h0.128v0.039h0.089v0.038h0.128v0.051h0.077v0.039l0.127,0v0.039
	h0.089l0,0.051h0.089v0.039h0.077v0.039h0.09v0.051l0.089,0v0.038h0.077v0.039h0.09v0.051h0.089v0.039h0.077v0.038h0.127l0-0.038
	h0.051v-0.039h0.039v-0.051h0.051v-0.039h0.039v-0.038h0.038v-0.051h0.051v-0.039h0.077v-0.039h0.051v-0.051h0.038v-0.038l0.089,0
	v-0.039h0.039v-0.051h0.089V13.36h0.077v-0.039h0.089v-0.051h0.089v-0.038h0.077v-0.039h0.128v-0.051h0.051v-0.039h0.077v-0.038
	h0.089v-0.051l0.09,0v-0.039l0.077,0v-0.038h0.051l0-0.051h0.077v-0.038h0.09v-0.038h0.089v-0.051h0.076v-0.038h0.051V12.67h0.077
	v-0.039h0.089v-0.039h0.089v-0.051h0.077v-0.039h0.089v-0.039l0.039,0l0-0.051h0.09v-0.039h0.089v-0.039h0.077l0-0.051l0.089,0.001
	l0-0.039l0.089,0v-0.039l0.039,0v-0.051h0.089V12.12h0.089v-0.039h0.077V12.03h0.089v-0.039l0.089,0v-0.038l0.077,0v-0.051h0.051
	v-0.038h0.076v-0.039h0.09v-0.051h0.089v-0.038h0.077v-0.039h0.089v-0.051h0.089v-0.038h0.039V11.57h0.09l0-0.051h0.076l0.001-0.039
	l0.089,0.001v-0.039h0.089v-0.051h0.077v-0.039h0.089v-0.038h0.039v-0.051h0.089l0-0.039l0.089,0.001v-0.04l0.077,0v-0.051h0.089
	v-0.038h0.09v-0.038h0.077v-0.052h0.089v-0.039h0.09v-0.038h0.038V10.88h0.09l0-0.039h0.089v-0.038h0.077v-0.051h0.089l0-0.039
	l0.09,0v-0.039h0.077v-0.051h0.089v-0.039h0.089v-0.038h0.039v-0.051h0.089l0-0.039h0.076l0-0.038l0.089-0.001v-0.05h0.09V10.33
	h0.077l0-0.039h0.089V10.24l0.089,0l0-0.039h0.077v-0.051h0.089v-0.038h0.09l0-0.039h0.076v-0.051h0.051V9.985h0.077V9.946h0.09
	V9.895h0.089V9.857h0.077V9.818h0.089V9.768h0.09V9.729l0.077-0.001V9.691h0.09l0-0.051h0.09V9.601h0.09V9.563h0.076l0-0.051h0.089
	V9.473l0.09,0V9.435h0.076V9.384h0.051V9.346h0.077V9.307h0.089l0-0.051h0.09V9.218l0.077,0V9.18l0.089,0V9.128h0.09V9.09h0.076
	V9.052h0.089V9h0.09V8.962h0.076V8.923l0.09,0V8.873h0.089V8.834h0.077V8.796h0.09V8.745h0.089V8.707l0.077,0V8.667h0.089V8.616
	l0.089,0.001l0-0.039h0.077V8.54h0.089V8.489h0.09V8.451h0.077V8.413l0.089-0.001v-0.05h0.089V8.323h0.09V8.285h0.077l0-0.052h0.09
	V8.195h0.089V8.157l0.077,0V8.105h0.089V8.067h0.089l0-0.039h0.078v-0.05l0.089-0.001V7.939h0.09V7.901h0.076l0-0.051h0.089V7.812
	h0.09V7.773h0.077V7.722h0.089V7.683h0.089V7.645h0.077V7.594h0.089V7.556h0.089V7.504h0.077l0-0.038l0.089,0V7.428l0.09,0l0-0.051
	h0.077V7.338h0.089V7.3h0.09V7.249h0.076V7.21h0.089V7.172l0.089,0l0-0.051h0.076V7.083h0.09V7.044h0.089l0-0.051h0.089V6.955h0.128
	V6.916h0.076v-0.05h0.09V6.827h0.089V6.789h0.077V6.738l0.089,0V6.699h0.089V6.661h0.077V6.609h0.09l0-0.038h0.089V6.533h0.077
	V6.481h0.089V6.443h0.09V6.405h0.076l0-0.051h0.089V6.315h0.128V6.277h0.089V6.226h0.077V6.188h0.089l0-0.038h0.09V6.098h0.077V6.06
	h0.089V6.021h0.089V5.97l0.077,0V5.932h0.09V5.894h0.089V5.842h0.128l0-0.039l0.089,0l0-0.039h0.076V5.715l0.09,0V5.676l0.089,0
	l0-0.039h0.077V5.586h0.089l0-0.038h0.089V5.51h0.078l0-0.051h0.127V5.42h0.09V5.382h0.089V5.331h0.077V5.293h0.089V5.254h0.089
	V5.203h0.077V5.165l0.127,0.001V5.126h0.09V5.076h0.089V5.037h0.077V4.986h0.089V4.948h0.089V4.909h0.077l0-0.052l0.128,0l0-0.038
	h0.09l0-0.039h0.09V4.73h0.077V4.692h0.089V4.654l0.089,0V4.603l0.09,0V4.564h0.127l0-0.039h0.077V4.474h0.089V4.436h0.09V4.398
	l0.077,0V4.347h0.128l0-0.038h0.089V4.27h0.089V4.219h0.077l0-0.039h0.089V4.142h0.089l0-0.051h0.127V4.053h0.077V4.014h0.089V3.963
	l0.089,0V3.925h0.077V3.886h0.127V3.835h0.09V3.797h0.089V3.759l0.077,0V3.708h0.09V3.668h0.127l0-0.038l0.09,0V3.58h0.076V3.541
	h0.089l0-0.038l0.127,0V3.452h0.089V3.413h0.09V3.375h0.077V3.324h0.089l0-0.038l0.127,0V3.248h0.09l0-0.051h0.077V3.158l0.089,0
	V3.12l0.128,0V3.068l0.089,0V3.03h0.077V2.992h0.09l0-0.052h0.128V2.902h0.089V2.863h0.077V2.812h0.089V2.774h0.128V2.736h0.089
	V2.685h0.077V2.646h0.127l0-0.039h0.089v-0.05l0.09-0.001V2.518l0.076,0V2.467h0.128V2.429h0.089V2.391h0.09V2.339h0.128V2.301
	h0.089V2.263l0.077,0V2.211h0.089V2.173h0.128V2.135h0.089l0-0.051h0.077V2.045l0.127,0V2.007h0.09V1.956h0.089V1.917h0.128V1.879
	h0.077l0-0.051h0.089V1.79h0.128l0-0.039l0.089,0V1.7h0.077V1.662h0.128l0-0.038h0.09V1.572h0.089l0-0.039h0.127V1.496h0.077V1.445
	h0.089l0-0.039h0.127V1.368h0.09V1.317l0.127,0V1.278h0.077V1.24h0.089V1.188h0.128V1.15h0.089V1.112h0.089V1.061h0.128V1.022h0.077
	l0-0.038h0.128V0.933h0.089V0.895h0.128V0.856h0.089v-0.05l0.077-0.001V0.767h0.128V0.729h0.09V0.677h0.127V0.639h0.09V0.601
	l0.127,0V0.55l0.077,0V0.511h0.089l0-0.039h0.128V0.421h0.09V0.383h0.127V0.345h0.077V0.294l0.128,0V0.256h0.089V0.217h0.089V0.166
	h0.038l0-0.038h0.089V0.089l0.128,0V0.038l0.127,0V0h1.367l0,0.039l0.255,0v0.051h0.166v0.038h0.217v0.038h0.166l0,0.051h0.128
	v0.039h0.179v0.038h0.128v0.051l0.127,0v0.038h0.128v0.038h0.127l0,0.051h0.128v0.039h0.077l0,0.039l0.128,0v0.051h0.128l0,0.039
	h0.09v0.038h0.089v0.051h0.128v0.039h0.076v0.039h0.09l0,0.051l0.128-0.001v0.039h0.089v0.039h0.077v0.051l0.089,0v0.039h0.09v0.038
	l0.077,0v0.051h0.089V1.15h0.09v0.038h0.076V1.24h0.09v0.039h0.089v0.039l0.089,0v0.051h0.077v0.039h0.051v0.039h0.076v0.05
	l0.09,0.001v0.038h0.089l0,0.039h0.039l0,0.051h0.09v0.038h0.076V1.7h0.051v0.051h0.077V1.79l0.089,0v0.038h0.038v0.051h0.09v0.039
	h0.039v0.039h0.089v0.051h0.039l0,0.038h0.089v0.039h0.039v0.051h0.089l0,0.038h0.038v0.039h0.051v0.051l0.077,0v0.039h0.051v0.038
	h0.077v0.051h0.051v0.038h0.038v0.039h0.039v0.051h0.089v0.039h0.039v0.05l0.051,0.001v0.038h0.077l0,0.038h0.052l0,0.051h0.039
	v0.038h0.038v0.038l0.051,0v0.051l0.077,0.001v0.038h0.051l0,0.038h0.038v0.052H61.3V3.03h0.039v0.039h0.038l0,0.051h0.051v0.038
	h0.039v0.039h0.089v0.051l0.039-0.001v0.039h0.038l0,0.038h0.051l0,0.051h0.038v0.038h0.039v0.039h0.051v0.051h0.038v0.038h0.038
	V3.58h0.051V3.63h0.039v0.077h0.039v0.051h0.051v0.038h0.038v0.038h0.039v0.051h0.051v0.038h0.039v0.039h0.038v0.09h0.051v0.038
	h0.038v0.051h0.039V4.18h0.051v0.09h0.039v0.039h0.038v0.038h0.051v0.089h0.039v0.038l0.039,0.001v0.05h0.051l0,0.077l0.038,0v0.051
	h0.038V4.73h0.051v0.09h0.039v0.038l0.039,0v0.09h0.051l0,0.089H63v0.039h0.038l0,0.089h0.051v0.09h0.039v0.077h0.038V5.42h0.051
	v0.09h0.039v0.076h0.039v0.09h0.051v0.089h0.038v0.077h0.038V5.97h0.051v0.09h0.039l0,0.127h0.039v0.089H63.6v0.128h0.038v0.076
	h0.039v0.128h0.051l0,0.128h0.039v0.128h0.051v0.089h0.039v0.128h0.038V7.21h0.051v0.128h0.039l0,0.127h0.039v0.128h0.051v0.128
	h0.038V7.85h0.039v0.179h0.051v0.128h0.038v0.128l0.038,0v0.127l0.051,0.001V8.54h0.039v0.127h0.038v0.128h0.051v0.166h0.039V9.09
	h0.039l0,0.127l0.052,0l0,0.128h0.039v0.127l0.038,0v0.127h0.051v0.127h0.038v0.128h0.039v0.128h0.051v0.128h0.038v0.127h0.039
	v0.128h0.051v0.089l0.039,0l0,0.127h0.039l0,0.128l0.051,0v0.127h0.038v0.128l0.039,0.001v0.127h0.051l0,0.128h0.038v0.127h0.038
	l0,0.128h0.051v0.127h0.038v0.128h0.039v0.166h0.051l0,0.128h0.039l0,0.128h0.038v0.179h0.051v0.128l0.039,0v0.167h0.039v0.179
	h0.051l0,0.166l0.038,0l0,0.166h0.038v0.218h0.051v0.217H65.9v0.294h0.089v1.968H65.9v0.205h-0.039v0.256H65.81v0.217l-0.039,0
	l0,0.217l-0.039,0v0.166h-0.051v0.167h-0.039v0.179h-0.039v0.166h-0.051l0,0.166l-0.038,0l0,0.179h-0.038v0.128h-0.051v0.167h-0.039
	v0.128H65.35v0.127h-0.051v0.128h-0.038l0,0.128h-0.038v0.128h-0.051v0.127h-0.039v0.128h-0.038v0.128l-0.051,0v0.128l-0.039,0
	v0.089h-0.039v0.128h-0.051v0.089h-0.039v0.129l-0.038-0.001v0.077h-0.051v0.127l-0.039,0.001v0.089h-0.039v0.089H64.66v0.127
	h-0.038v0.077h-0.039v0.089h-0.051v0.089h-0.039v0.09h-0.038v0.076h-0.051v0.09l-0.038,0v0.089h-0.039v0.077h-0.051l0,0.089
	l-0.039,0v0.09h-0.038l0,0.077h-0.051v0.09h-0.039v0.089h-0.038v0.076l-0.051,0.001l0,0.051l-0.039-0.001v0.077h-0.038v0.09h-0.052
	v0.039h-0.038v0.089h-0.039v0.09h-0.051v0.038h-0.038l0,0.089h-0.051v0.039h-0.039v0.09H63.6v0.038h-0.051v0.089h-0.038l0,0.039
	h-0.039l0,0.039h-0.051v0.089h-0.038v0.039h-0.038v0.051h-0.051v0.038h-0.039l0,0.09h-0.038v0.039h-0.051v0.038h-0.038v0.051h-0.039
	v0.038h-0.051v0.039h-0.039v0.052l-0.038,0l0,0.077H62.91v0.051h-0.039v0.038h-0.089l0,0.051l-0.038,0l0,0.039h-0.038l0,0.039
	h-0.051v0.05h-0.039v0.039h-0.039v0.038l-0.089,0v0.051H62.45v0.038h-0.09v0.039h-0.038v0.05l-0.089,0.001l0,0.038h-0.089v0.038
	h-0.128v0.051h-0.128l0,0.038h-0.166l0,0.039h-0.127v0.051h-0.167l0,0.038l-0.128,0v0.038h-0.178v0.051h-0.128v0.038h-0.166v0.039
	H60.7l0,0.051h-0.128v0.039l-0.179,0v0.039h-0.128v0.051h-0.166v0.038h-0.128l0,0.039h-0.167v0.051l-0.179,0l0,0.038h-0.128l0,0.039
	h-0.166v0.051h-0.127v0.039h-0.166v0.038h-0.128l0,0.051h-0.179v0.038l-0.166,0v0.038h-0.128l0,0.051h-0.179v0.039l-0.127,0v0.039
	h-0.167v0.051h-0.166v0.039l-0.127,0l0,0.039l-0.179,0v0.051h-0.166v0.039h-0.128v0.038h-0.166l0,0.052l-0.179,0v0.039l-0.128,0
	l0,0.039H56.56v0.051h-0.166l0,0.039h-0.179v0.038h-0.128v0.051h-0.166l0,0.039l-0.178,0l0,0.038h-0.166v0.051h-0.128v0.039h-0.166
	v0.038h-0.179v0.051h-0.167v0.038h-0.166v0.051h-0.128v0.038h-0.179l-0.166,0.039l0,0.051h-0.166v0.038h-0.179v0.039h-0.166v0.051
	H53.66v0.038h-0.179v0.039h-0.166v0.051h-0.166v0.038l-0.179,0.001v0.038h-0.166l0,0.051h-0.166v0.039h-0.178v0.038h-0.166l0,0.051
	h-0.166v0.038h-0.179v0.039l-0.166,0v0.051h-0.127v0.039h-0.166v0.038h-0.179v0.051h-0.166v0.038l-0.179,0v0.038h-0.167l0,0.051
	h-0.217v0.038l-0.166,0.001v0.038h-0.166l0,0.051l-0.178,0l0,0.038h-0.166v0.039h-0.167l0,0.05h-0.179v0.039h-0.167v0.038h-0.166
	l-0.179,0.051v0.039h-0.166v0.038h-0.217v0.051h-0.166l0,0.039h-0.179l0,0.038h-0.166v0.051h-0.166v0.039h-0.179l0,0.039h-0.204
	v0.051h-0.179v0.038h-0.166v0.039h-0.166v0.051h-0.217v0.038H46.71v0.038h-0.179v0.051h-0.166v0.039h-0.217v0.039h-0.166v0.05
	l-0.179,0.001l0,0.038h-0.205v0.039l-0.179,0v0.051h-0.166l0,0.038h-0.217v0.039H44.87v0.051h-0.217v0.039l-0.166,0l0,0.039h-0.167
	v0.051h-0.217v0.038h-0.167l0,0.051H43.72v0.039l-0.166,0v0.038h-0.217v0.052h-0.179l0,0.039h-0.205v0.038h-0.179v0.051l-0.204,0
	v0.038h-0.217v0.038h-0.166v0.051H41.97V28.6h-0.166v0.039h-0.217v0.051l-0.217,0v0.039h-0.166v0.039h-0.217l0,0.05h-0.217v0.039
	h-0.167l0,0.038h-0.217v0.051l-0.205,0.001v0.038h-0.217v0.039l-0.217,0v0.051h-0.166v0.038h-0.217v0.039H39.16l-0.001,0.051h-0.217
	v0.038h-0.217v0.038l-0.204,0v0.051h-0.217l0,0.039h-0.217v0.039h-0.217l0,0.051h-0.204l0,0.038l-0.217,0v0.039h-0.217v0.051h-0.204
	v0.038h-0.217v0.039h-0.217v0.051h-0.205v0.039l-0.217,0v0.038h-0.217v0.051h-0.204v0.038h-0.269v0.039h-0.205v0.051l-0.217,0
	l0,0.038l-0.255,0v0.038h-0.217v0.051h-0.205v0.038h-0.255v0.038h-0.217v0.051h-0.256v0.039l-0.217,0V30.3H33.18v0.051h-0.218v0.039
	h-0.204v0.038H32.63v0.051h-0.179v0.039h-0.204l0,0.039h-0.895v0.089h-0.051v0.089h-0.038v0.128h-0.038v0.09h-0.051v0.076h-0.038
	v0.09h-0.039v0.127l-0.051,0v0.09h-0.039v0.076h-0.038v0.051h-0.051v0.077H30.88v0.09h-0.039v0.089h-0.051v0.077h-0.039v0.051
	h-0.038l0,0.076h-0.051v0.051h-0.038v0.077h-0.051v0.051h-0.039v0.077h-0.039l0,0.051l-0.051,0.001v0.076h-0.039v0.051h-0.038v0.038
	h-0.051l0,0.09H30.28v0.039h-0.038v0.038H30.19v0.051h-0.039v0.039h-0.039v0.039h-0.051v0.089l-0.038,0v0.038l-0.038,0v0.051h-0.051
	v0.039h-0.039v0.038h-0.038v0.051h-0.051l0,0.039h-0.039v0.039l-0.089,0v0.051h-0.039v0.038h-0.039v0.051h-0.051v0.039h-0.038v0.038
	l-0.039,0v0.051h-0.089v0.039h-0.039v0.038h-0.051v0.051h-0.076v0.038h-0.051v0.039l-0.077,0v0.051H29.04v0.038h-0.077v0.038h-0.089
	v0.052h-0.09v0.039h-0.039v0.038l-0.089,0v0.051h-0.127v0.039h-0.077v0.039h-0.089v0.051h-0.128v0.038l-0.089,0v0.039l-0.127,0
	v0.051h-0.167v0.038h-0.179l0,0.039h-0.166v0.051h-0.255l0,0.039H25.974z M19.791,31.885v-0.038h-0.09v-0.051h-0.038v-0.038h-0.051
	V31.63h-0.038v-0.473h-0.039v-0.511h-0.051v-0.601h0.051v-0.038h0.039v-0.039h0.166v-0.051h0.473v-0.039h0.473V29.84h0.601v0.038
	h0.038v0.039h0.039v0.09h0.051v0.421h0.038v0.473h0.039v0.511h0.051v0.128H21.49v0.09h-0.039v0.038h-0.038v0.051h-0.09v0.039H20.94
	v0.038h-0.473v0.051h-0.511v0.038H19.791z M25.374,33.215v-0.051h-0.255v-0.038h-0.167v-0.051h-0.179v-0.039h-0.127v-0.039h-0.128
	v-0.051H24.39v-0.038h-0.077V32.87h-0.089v-0.051h-0.127V32.78h-0.09v-0.038H23.93v-0.051H23.84v-0.039h-0.089v-0.039h-0.039v-0.051
	h-0.089v-0.038h-0.077v-0.039h-0.089v-0.051h-0.039v-0.039h-0.089v-0.038h-0.038v-0.051h-0.089v-0.038h-0.039v-0.038h-0.089v-0.052
	h-0.038v-0.038h-0.09v-0.039h-0.051v-0.051h-0.038v-0.038h-0.09v-0.039h-0.039v-0.051H22.69v-0.038H22.64v-0.038h-0.077v-0.051
	h-0.051v-0.038h-0.039v-0.039h-0.038v-0.051h-0.051V31.63h-0.038v-0.039h-0.089V31.54h-0.039v-0.038h-0.039v-0.039h-0.051v-0.09
	H22.09v-0.473h-0.039v-0.422h0.127v0.039h0.039v0.039h0.039v0.051h0.051v0.039h0.039v0.051h0.038v0.038h0.089v0.039h0.039v0.051
	h0.089v0.038h0.127v0.039h0.09v-0.039h0.077v-0.038h0.051v-0.127h0.038v-0.141h-0.038v-0.205h-0.051v-0.128h-0.038v-0.127h-0.039
	v-0.089h-0.051v-0.09h-0.039V29.84H22.69V29.75H22.64v-0.039h-0.039v-0.09h-0.038v-0.089h-0.051v-0.038h-0.039v-0.089h-0.038v-0.039
	h-0.051v-0.039h-0.038v-0.051h-0.039v-0.076h-0.051v-0.051h-0.039v-0.039h-0.039v-0.038h-0.051v-0.051H22.09v-0.039h-0.039v-0.038
	H22v-0.052h-0.038v-0.038h-0.039v-0.039h-0.089v-0.051h-0.038v-0.038h-0.09v-0.038h-0.089v-0.051h-0.255v0.089h-0.039v0.422h0.039
	v0.051h-0.039v0.039h-0.639v0.038H20.34v-0.038h-0.039v-0.039H20.25v-0.09h-0.038v-0.038h-0.039v-0.09h-0.051v-0.038h-0.039v-0.09
	h-0.038v-0.09h-0.051v-0.038h-0.038v-0.089h-0.039v-0.077h-0.051V28.51h-0.038v-0.076h-0.038v-0.089h-0.051v-0.039h-0.039v-0.089
	h-0.038v-0.09h-0.051v-0.089h-0.038V27.96h-0.039v-0.09h-0.051v-0.089h-0.038v-0.039h-0.038v-0.089h-0.051v-0.077h-0.038v-0.089
	h-0.039v-0.089h-0.051V27.27H19.19v-0.077h-0.039v-0.089h-0.051v-0.09h-0.039v-0.076h-0.038v-0.089h-0.051V26.72h-0.038v-0.089
	h-0.039v-0.077h-0.051v-0.127h-0.038v-0.089h-0.039v-0.128h-0.051v-0.089h-0.039v-0.128h-0.038v-0.127h-0.051v-0.077h-0.039v-0.128
	h-0.038v-0.128h-0.051v-0.141h-0.038v-0.128h-0.039v-0.127h-0.051v-0.128h-0.038v-0.128h-0.039v-0.128h-0.051v-0.166h-0.038v-0.128
	h-0.039v-0.166h-0.051v-0.179H18.04v-0.167h-0.039V23.78h-0.051v-0.179h-0.039v-0.206h-0.038v-0.217h-0.051v-0.217h-0.039v-0.256
	h-0.051V22.45h-0.039v-0.294h-0.038v-0.383h-0.051v-0.511h-0.039v-1.675h0.039v-0.46h0.051v-0.307h0.038v-0.294h0.039v-0.217h0.051
	v-0.167h0.039v-0.217h0.051v-0.128h0.038V17.63h0.039v-0.127h0.051v-0.128h0.039v-0.128h0.038v-0.128h0.051V17.03h0.039v-0.09h0.038
	v-0.128h0.051v-0.077h0.039v-0.09h0.038v-0.089h0.051V16.48h0.039v-0.09h0.038v-0.038h0.051v-0.089h0.038v-0.089h0.039v-0.039h0.051
	v-0.089h0.038v-0.039h0.039v-0.089h0.051v-0.039h0.039V15.84h0.038v-0.05h0.051v-0.077h0.039v-0.051h0.038v-0.038h0.051v-0.039
	h0.038v-0.051h0.039v-0.039h0.051v-0.038h0.039v-0.051h0.038v-0.039h0.051v-0.039h0.039v-0.05h0.038V15.24h0.089v-0.051h0.038
	v-0.039h0.051v-0.038h0.077v-0.051h0.051v-0.039h0.077v-0.038h0.089v-0.051h0.038v-0.039h0.09v-0.038h0.089v-0.051h0.127v-0.038
	h0.077v-0.039h0.128v-0.051h0.141v-0.039h0.205V14.6h0.255v-0.051h0.767V14.6h0.307v0.038h0.205v0.039h0.179v0.051h0.128v0.039
	h0.127v0.038h0.128v0.051h0.077v0.038h0.141v0.039h0.077v0.051h0.089v0.038h0.089v0.039h0.077v0.051h0.089v0.038h0.089v0.039h0.077
	v0.051h0.051v0.039h0.077v0.05h0.089v0.039h0.039v0.039h0.089v0.051h0.038v0.038h0.09v0.039h0.038v0.051h0.089v0.039h0.038v0.038
	h0.051v0.051h0.077v0.039h0.051v0.039h0.038v0.05h0.09v0.039h0.038v0.039h0.039v0.052h0.051v0.038h0.038v0.039h0.09v0.051h0.039
	v0.039h0.038v0.039h0.051v0.051h0.039v0.038h0.038v0.039h0.051v0.051h0.039v0.038h0.039v0.039h0.051v0.052h0.077v0.038h0.051v0.038
	h0.038v0.051h0.039v0.039h0.051v0.09h0.039v0.038h0.051v0.039h0.039v0.051h0.038v0.038h0.051v0.039h0.038v0.051h0.039v0.039h0.051
	v0.038h0.038v0.051h0.039v0.039h0.051v0.089h0.038v0.039h0.039v0.039h0.051v0.051h0.038v0.038h0.039v0.09h0.051v0.039h0.039v0.038
	h0.039v0.051h0.051v0.077h0.039v0.051h0.038v0.039h0.051v0.089h0.039v0.039h0.039v0.051h0.051v0.077h0.039v0.051h0.039v0.038h0.051
	v0.09h0.038v0.038h0.039v0.089h0.051v0.038h0.039v0.09h0.038v0.038h0.051v0.09h0.038v0.038h0.039v0.09h0.051v0.039h0.039v0.089
	h0.038v0.039h0.051v0.089h0.038v0.077h0.038v0.051h0.051v0.077h0.039v0.09h0.039v0.089h0.051v0.039h0.038v0.089h0.039v0.077h0.051
	v0.089h0.039v0.038h0.038v0.09h0.051v0.089h0.039v0.077h0.038v0.089h0.051v0.089h0.039v0.077h0.038v0.089h0.051v0.089h0.039v0.09
	h0.038v0.076h0.051v0.09h0.038v0.128h0.051v0.089h0.038v0.077h0.039v0.09h0.051v0.128h0.038v0.089h0.038v0.127h0.051v0.077h0.038
	v0.09h0.039v0.127h0.051v0.128h0.038V21.9h0.038v0.128h0.051v0.127h0.038v0.128h0.039v0.127h0.051v0.128h0.039v0.128h0.038v0.128
	h0.051v0.128h0.039v0.127h0.038v0.166h0.051v0.128h0.039v0.179h0.039v0.166h0.051v0.167h0.038v0.179h0.038v0.166h0.051v0.218h0.039
	v0.205h0.039v0.217h0.051v0.256h0.039v0.294h0.038v0.307h0.051v0.384h0.039v0.601h0.039v1.355h-0.039v0.524h-0.039v0.333h-0.051
	v0.307h-0.038v0.205h-0.039v0.217h-0.051v0.167h-0.039v0.179h-0.039v0.128h-0.051v0.166h-0.038v0.128h-0.038v0.128h-0.051v0.089
	H29.13v0.127h-0.039v0.09H29.04v0.128h-0.038v0.077h-0.039v0.089h-0.051v0.09h-0.038v0.077h-0.039v0.089h-0.051v0.039h-0.039v0.09
	h-0.038v0.089h-0.051v0.039h-0.038v0.089h-0.038v0.039h-0.051v0.089h-0.039v0.038h-0.038v0.038h-0.051v0.051h-0.038v0.077h-0.038
	v0.051h-0.051v0.039h-0.039v0.038h-0.038v0.052h-0.051v0.038h-0.038v0.038h-0.051v0.051h-0.038v0.038h-0.039v0.039h-0.051v0.051
	h-0.038v0.039h-0.09v0.038h-0.038v0.051h-0.039v0.039h-0.089v0.039h-0.039v0.051h-0.089v0.038h-0.038v0.039h-0.089v0.051h-0.09
	v0.039h-0.076v0.038h-0.089v0.051h-0.128v0.039h-0.127v0.039H26.74v0.051h-0.166v0.038h-0.217v0.051H25.374z M33.09,28.561v-0.255
	h0.051v-0.217h0.039v-0.256h0.051v-0.307h0.038v-0.512h0.039v-1.482h-0.039v-0.524h-0.038v-0.383H33.18v-0.333h-0.039v-0.255H33.09
	V23.78h-0.039v-0.256h-0.038v-0.217h-0.051V23.09h-0.038v-0.167h-0.039v-0.179h-0.051V22.54h-0.039v-0.179h-0.038v-0.128h-0.051
	v-0.167h-0.038v-0.128H32.63v-0.166h-0.051v-0.128h-0.039v-0.127h-0.038v-0.178h-0.051v-0.129h-0.039v-0.127h-0.038v-0.128h-0.051
	v-0.077h-0.039V20.75h-0.038v-0.128h-0.052v-0.127h-0.039v-0.09H32.12v-0.127h-0.051v-0.09H32.03v-0.128h-0.038V19.97H31.94v-0.127
	h-0.039v-0.077h-0.038v-0.089h-0.051v-0.128h-0.038v-0.09h-0.038v-0.077h-0.051v-0.089h-0.039v-0.09h-0.038v-0.077h-0.051v-0.089
	h-0.038v-0.09h-0.038V18.87H31.43v-0.089h-0.039v-0.09h-0.039v-0.077h-0.051v-0.09h-0.038v-0.089h-0.038v-0.077h-0.051V18.27h-0.038
	v-0.038h-0.039v-0.09h-0.051v-0.089h-0.039v-0.077H30.97v-0.051h-0.051v-0.077H30.88v-0.089h-0.039v-0.051h-0.051V17.63h-0.039
	v-0.089h-0.038v-0.039h-0.052v-0.09h-0.038v-0.038h-0.051v-0.089h-0.039v-0.039h-0.039v-0.089h-0.051v-0.039h-0.039V17.03h-0.038
	v-0.039h-0.051V16.94h-0.039v-0.077h-0.039v-0.051h-0.05v-0.077h-0.039v-0.051h-0.039v-0.039h-0.051v-0.039h-0.038v-0.089h-0.039
	V16.48h-0.05v-0.052h-0.039v-0.077h-0.038v-0.051h-0.051v-0.039h-0.038v-0.038H29.73v-0.051h-0.051v-0.077h-0.039v-0.051h-0.039
	v-0.039h-0.051v-0.038h-0.038v-0.052h-0.039v-0.039h-0.051V15.84h-0.039v-0.05h-0.039v-0.039h-0.051v-0.039h-0.038v-0.051h-0.038
	v-0.038h-0.051v-0.039H29.13v-0.051h-0.039v-0.039H29.04v-0.038h-0.038v-0.051h-0.039v-0.039h-0.051v-0.039h-0.038v-0.05h-0.039
	V15.24h-0.051v-0.051h-0.039v-0.039h-0.038v-0.038h-0.089v-0.051h-0.038v-0.039h-0.051v-0.038h-0.039v-0.051h-0.089v-0.039h-0.038
	v-0.038h-0.038v-0.051h-0.09v-0.038h-0.038v-0.039h-0.051v-0.051h-0.089v-0.039h-0.038V14.6h-0.09v-0.051h-0.038v-0.039h-0.09
	v-0.038h-0.077v-0.051h-0.051v-0.039h-0.077v-0.039h-0.089v-0.051h-0.089v-0.039h-0.077v-0.038h-0.089v-0.179h0.038v-0.039h0.051
	v-0.038h0.077V13.91h0.051v-0.038h0.077v-0.039h0.09v-0.051h0.038v-0.039h0.089v-0.038h0.038v-0.051h0.09v-0.039h0.089v-0.039h0.077
	v-0.051h0.051v-0.038h0.089v-0.039h0.077v-0.051h0.089V13.36h0.089v-0.039h0.038v-0.051h0.09v-0.038h0.076v-0.039h0.089v-0.051h0.09
	v-0.039h0.076v-0.038h0.051v-0.051h0.077v-0.039h0.09v-0.039h0.089v-0.051h0.076v-0.038h0.09v-0.038h0.089v-0.051h0.076v-0.038h0.09
	V12.67h0.089v-0.039h0.077v-0.039h0.089v-0.051h0.039v-0.038h0.089v-0.038h0.089v-0.051h0.077v-0.039h0.089v-0.039h0.09v-0.051
	h0.077v-0.038h0.089v-0.038h0.09v-0.051h0.089V12.12h0.076v-0.039h0.09V12.03h0.089v-0.039h0.076v-0.038h0.09v-0.052h0.089v-0.038
	h0.076v-0.039h0.09v-0.051h0.09v-0.038h0.076v-0.039h0.089v-0.051h0.09v-0.038h0.076V11.57h0.089v-0.051h0.09V11.48h0.077v-0.038
	h0.089v-0.051h0.09v-0.039h0.076v-0.038h0.089v-0.051h0.09v-0.039h0.076v-0.038h0.128v-0.051h0.089v-0.038h0.09v-0.038h0.077v-0.052
	h0.089v-0.039h0.09v-0.038h0.09V10.88h0.076v-0.039h0.089v-0.038h0.09v-0.051h0.076v-0.039h0.089v-0.038h0.09v-0.051h0.077v-0.039
	h0.089v-0.038h0.089v-0.051h0.128v-0.039h0.076V10.42h0.089v-0.051h0.09V10.33h0.076v-0.039h0.09V10.24h0.089v-0.038h0.077v-0.051
	h0.09v-0.038h0.089v-0.039h0.077v-0.051h0.127V9.985h0.089V9.946h0.09V9.895h0.076V9.857h0.09V9.818h0.089V9.768h0.077V9.729h0.089
	V9.691h0.089V9.64h0.089V9.601h0.128V9.563h0.077V9.512h0.089V9.473h0.089V9.435h0.077V9.384h0.089V9.346h0.09V9.307h0.077V9.256
	h0.127V9.217h0.089V9.179h0.089V9.128h0.077V9.09h0.09V9.052h0.089V9h0.076V8.962h0.128V8.923h0.089V8.873h0.09V8.834h0.077V8.796
	h0.089V8.745h0.09V8.706h0.076V8.667h0.128v-0.05h0.089V8.578h0.089V8.54h0.077V8.489h0.089V8.451h0.089V8.412h0.09v-0.05h0.127
	V8.323h0.077V8.285h0.089V8.233h0.089V8.195h0.077V8.156h0.09V8.105h0.127V8.067h0.089V8.028h0.077V7.977h0.089V7.939h0.09V7.901
	h0.127V7.85h0.077V7.812h0.09V7.773h0.089V7.722h0.077V7.683h0.089V7.645h0.127V7.594h0.09V7.556h0.077V7.504h0.089V7.466h0.09
	V7.428h0.127V7.377h0.077V7.338h0.089V7.3h0.089V7.249h0.09V7.21h0.127V7.172h0.077V7.121h0.089V7.083h0.089V7.044h0.077V6.993
	h0.127V6.955h0.09V6.916h0.089v-0.05h0.077V6.827h0.089V6.789h0.128V6.737h0.089V6.699h0.076V6.661h0.09V6.609h0.127V6.571h0.09
	V6.533h0.077V6.481h0.089V6.443h0.128V6.405h0.089V6.354h0.077V6.315h0.089V6.277h0.128V6.226h0.089V6.188h0.089V6.149h0.077V6.098
	h0.128V6.06h0.089V6.021h0.09V5.97h0.077V5.932h0.128V5.894h0.089V5.842h0.089V5.804h0.077V5.766h0.128V5.714h0.089V5.676h0.089
	V5.638h0.077V5.586h0.127V5.548h0.089V5.51h0.09V5.459h0.127V5.42h0.077V5.382h0.089V5.331h0.089V5.293h0.128V5.254h0.077V5.203
	h0.089V5.165h0.127V5.126h0.09V5.076h0.089V5.037h0.128V4.986h0.077V4.948h0.089V4.909h0.128V4.858h0.089V4.82h0.077V4.781h0.128
	V4.73h0.089V4.692h0.089V4.653h0.128V4.603h0.077V4.564h0.089V4.525h0.127V4.474h0.09V4.436h0.077V4.397h0.127V4.347h0.089V4.309
	h0.09V4.27h0.127V4.219h0.077V4.18h0.089V4.142h0.128V4.091h0.089V4.053h0.127V4.014h0.077V3.963h0.089V3.924h0.128V3.886h0.089
	V3.835h0.128V3.797h0.089V3.759h0.128V3.708h0.076V3.668h0.09V3.63h0.127V3.58h0.09V3.541h0.127V3.503h0.077V3.452h0.127V3.413h0.09
	V3.375h0.128V3.324h0.089V3.286h0.128V3.248h0.076V3.196h0.128V3.157h0.09V3.119h0.127V3.068h0.09V3.03h0.127V2.992h0.077V2.94h0.14
	V2.902h0.128V2.863h0.076V2.812h0.128V2.774h0.128V2.736h0.089V2.685h0.127V2.646h0.128V2.607h0.089v-0.05h0.128V2.519h0.127V2.467
	h0.128V2.429h0.077V2.391h0.127V2.339h0.128V2.301h0.127V2.263h0.128V2.211h0.128V2.173h0.127V2.135h0.128V2.084h0.127V2.045h0.179
	V2.007h0.128V1.956h0.166V1.917h0.179V1.879h0.204V1.828h0.473v0.051h0.089v0.039h0.128v0.039h0.077v0.051h0.127v0.038h0.09v0.039
	h0.127v0.051h0.09v0.038h0.127v0.039h0.077v0.051h0.089v0.039h0.089v0.038h0.128v0.051h0.077v0.038h0.089v0.039h0.089v0.051h0.089
	v0.039h0.077v0.05h0.089v0.039h0.089v0.038h0.077v0.051h0.09v0.038h0.089v0.039h0.077v0.051h0.089v0.039h0.089V2.94h0.077v0.052
	h0.09V3.03h0.089v0.039h0.077v0.051h0.051v0.038h0.077v0.039h0.089v0.051h0.089v0.038h0.077v0.038h0.051v0.051h0.077v0.038h0.09
	v0.039h0.038v0.051h0.089v0.038h0.039V3.58h0.09V3.63h0.089v0.038h0.039v0.039h0.09v0.051h0.038v0.038h0.089v0.038h0.039v0.051
	h0.089v0.038h0.038v0.039h0.051v0.051h0.077v0.039h0.051v0.038h0.076v0.051h0.051V4.18h0.039v0.039h0.038V4.27h0.089v0.039h0.039
	v0.038h0.051v0.051h0.038v0.039h0.089v0.038h0.038v0.051h0.039v0.039h0.051v0.039h0.038v0.051h0.038v0.039h0.051V4.73h0.039v0.051
	h0.039V4.82h0.051v0.038h0.038v0.051h0.039v0.077h0.051v0.051h0.038v0.039h0.039v0.051h0.051v0.077h0.038v0.051h0.039v0.077h0.051
	V5.42h0.039v0.09h0.038v0.038h0.051v0.09h0.039v0.076h0.039v0.09h0.051v0.089h0.038V5.97h0.039v0.051H60.7v0.077h0.038v0.089h0.039
	v0.089h0.051v0.077h0.038v0.089h0.039v0.089h0.051v0.077h0.039v0.09h0.038v0.089h0.051v0.077h0.039v0.089h0.038v0.09h0.051v0.077
	h0.039V7.21H61.3V7.3h0.039v0.077h0.038v0.089h0.051v0.128h0.039v0.089h0.038v0.09h0.051V7.85h0.039v0.127h0.038v0.09h0.051v0.089
	h0.039v0.128h0.039v0.077h0.051v0.127h0.038v0.089h0.038v0.128h0.051v0.09h0.039v0.127h0.038V9h0.051v0.128h0.038v0.127h0.039v0.128
	h0.051v0.089h0.039v0.128h0.038v0.127h0.051v0.128h0.038v0.128h0.039v0.128h0.051v0.127h0.038v0.128h0.038v0.179h0.051v0.128h0.039
	v0.128h0.039v0.166h0.051v0.128h0.038v0.166h0.038v0.179h0.051v0.128h0.039v0.166h0.039v0.166h0.051v0.179h0.038v0.166h0.039v0.167
	h0.051v0.217h0.039v0.179h0.038v0.166h0.051v0.217h0.038v0.167h0.039v0.217h0.051v0.205h0.038v0.179h0.038v0.205h0.051v0.217h0.039
	V14.6h0.039v0.294H63.6v0.896h-0.051v0.383H63.51v0.307h-0.039v0.255h-0.051v0.166h-0.038v0.218h-0.038v0.167h-0.051v0.166h-0.039
	v0.179h-0.038v0.128h-0.051v0.167h-0.038v0.128h-0.039v0.128h-0.051v0.127h-0.039v0.128h-0.038v0.128H62.91v0.128h-0.039v0.09
	h-0.039v0.127h-0.051v0.128h-0.038v0.089h-0.038v0.128h-0.051v0.077h-0.039v0.127h-0.039v0.09h-0.051v0.128h-0.038v0.089H62.45
	v0.077h-0.051v0.127H62.36v0.089h-0.038v0.089h-0.051v0.077h-0.038v0.089h-0.039v0.128h-0.051v0.09h-0.039v0.089h-0.038v0.077
	h-0.051v0.09h-0.038v0.089h-0.039v0.077h-0.051v0.051H61.85v0.077h-0.038v0.09H61.76v0.089h-0.039v0.077h-0.039v0.05h-0.051v0.077
	h-0.038v0.09h-0.039v0.039h-0.051v0.089h-0.038v0.039h-0.039v0.051h-0.051v0.038h-0.038v0.039H61.3v0.05H61.21v0.039h-0.089v0.039
	h-0.09v0.051h-0.077v0.038h-0.089v0.039h-0.089v0.051h-0.127v0.039h-0.077v0.039h-0.128v0.051h-0.089v0.038h-0.128v0.039h-0.127
	v0.051H60.01v0.038h-0.127v0.039h-0.128v0.051h-0.127v0.039h-0.128v0.038h-0.127v0.051h-0.128v0.038h-0.128v0.039h-0.127v0.051
	h-0.166v0.038h-0.128v0.039h-0.127v0.051h-0.128v0.038h-0.179v0.051h-0.127v0.038h-0.128v0.039h-0.166v0.05H57.71v0.039h-0.166
	v0.038h-0.128v0.052h-0.179v0.038H57.11v0.039h-0.167v0.05h-0.127v0.039h-0.167v0.038h-0.127v0.051h-0.179v0.038h-0.128v0.039
	h-0.166v0.051H55.87v0.038h-0.127v0.039h-0.166v0.051H55.41v0.038h-0.127v0.039h-0.179v0.051h-0.167v0.039h-0.166v0.039h-0.128
	v0.051h-0.179v0.038h-0.166v0.039h-0.166v0.051h-0.179v0.038h-0.166v0.039H53.66v0.051h-0.179v0.039h-0.166v0.038h-0.166v0.051
	H52.97v0.038h-0.166v0.039h-0.167v0.051h-0.178v0.038h-0.166v0.039h-0.167v0.051h-0.179v0.038h-0.166v0.038h-0.166v0.051h-0.179
	v0.039h-0.166v0.038h-0.167v0.051h-0.179v0.038H50.76v0.039h-0.179v0.051h-0.166v0.039h-0.166v0.038h-0.217v0.051h-0.167v0.038
	h-0.179v0.038h-0.166v0.051h-0.166v0.039h-0.179v0.038h-0.204v0.051h-0.179v0.039h-0.166v0.051h-0.179v0.038h-0.204v0.039h-0.179
	v0.051h-0.166v0.038h-0.166v0.039h-0.218v0.051h-0.166v0.038h-0.179v0.039h-0.204v0.051h-0.179v0.038H46.62v0.039h-0.217v0.051
	h-0.167v0.039H46.02v0.038h-0.166v0.051h-0.179v0.038H45.47v0.039h-0.179v0.051h-0.205v0.039h-0.178v0.038h-0.205v0.051h-0.179
	v0.038h-0.204v0.038h-0.179v0.051h-0.205v0.039H43.72v0.038h-0.166v0.051h-0.217v0.038h-0.179v0.038h-0.205v0.051h-0.217v0.039
	H42.57v0.038h-0.217v0.051h-0.217v0.039h-0.205v0.038h-0.179v0.051h-0.204v0.039h-0.217v0.038h-0.217v0.051h-0.205v0.038H40.73
	v0.039h-0.217v0.051h-0.204v0.038h-0.217v0.039h-0.217v0.051H39.67v0.038h-0.217v0.038h-0.217v0.051H38.98v0.039h-0.204v0.039
	h-0.217v0.051h-0.217v0.038h-0.217v0.039h-0.255v0.051h-0.205v0.038h-0.217v0.039h-0.255v0.051h-0.217v0.038h-0.255v0.039h-0.255
	v0.051h-0.205v0.038h-0.255v0.051h-0.255v0.039h-0.269v0.038h-0.255v0.052H34.93v0.039h-0.255v0.038h-0.293v0.051h-0.306v0.038
	H33.78v0.038h-0.345v0.051H33.09z"/>
<path  fill="#676767" fill-rule="evenodd" clip-rule="evenodd" d="M22.218,47.125v-0.038H22.09v-0.051h-0.128v-0.038h-0.039v-0.039h-0.089v-0.051
	h-0.038v-0.039h-0.051v-0.038h-0.039V46.78h-0.038v-0.077h-0.051v-0.09h-0.038v-0.089h-0.039v-0.167H21.49v-0.166h-0.039v-0.179
	h-0.038v-0.128h-0.051v-0.166h-0.039V45.54h-0.038v-0.167h-0.051v-0.127h-0.038v-0.167h-0.039v-0.345h0.039v-0.167h0.038v-0.089
	h0.051V44.44h0.038v-0.09h0.039v-0.039h0.051v-0.051h0.038v-0.038h0.039v-0.039h0.089v-0.051h0.089v-0.039h0.077v-0.038h0.179
	v-0.051h0.167v-0.038h0.166v-0.038h0.127v-0.052h0.179v-0.038h0.038v-0.039h0.039v-0.089h-0.039v-0.166h-0.038v-0.396h0.038v-0.128
	h0.039v-0.077h0.051v-0.051h0.038v-0.038h0.039v-0.039h0.051v-0.051h0.039v-0.039h0.089v-0.038h0.09v-0.051h0.127v-0.039h0.128
	v-0.039h0.166v-0.051h0.166v-0.038h0.179v-0.039h0.127v-0.051h0.167v-0.039h0.166v-0.038h0.256v0.038h0.128v0.039h0.089v0.051h0.09
	v0.039h0.039v0.038h0.038v0.051h0.051v0.039h0.039v0.039h0.038v0.089h0.051v0.09h0.039v0.166h0.039v0.128h0.051v0.167h0.038v0.179
	h0.039v0.128h0.051v0.166h0.038v0.18h0.039v0.46h-0.039v0.089h-0.038v0.089h-0.051v0.039h-0.039v0.038h-0.038v0.051h-0.051v0.039
	h-0.039v0.038H25.08v0.051h-0.128v0.038h-0.127V44.9h-0.128v0.051h-0.179v0.039h-0.077v0.255h0.038v0.167h0.039v0.179h0.051v0.166
	h0.038v0.307h-0.038v0.128h-0.051v0.077h-0.039v0.089h-0.038v0.089H24.39v0.039h-0.039v0.039h-0.039v0.051h-0.089v0.038h-0.039
	v0.039h-0.089v0.051h-0.128v0.039H23.84v0.038h-0.166v0.051h-0.179v0.038h-0.166v0.039h-0.127v0.051h-0.166v0.039h-0.179v0.038
	H22.69v0.051h-0.127v0.038H22.218z M22.307,46.524v-0.039h-0.089v-0.039h-0.039v-0.051h-0.051v-0.127H22.09v-0.167h-0.039v-0.127H22
	v-0.18h-0.038v-0.166h-0.039v-0.166h-0.051v-0.128h-0.039v-0.179h-0.038V44.99h-0.051v-0.167h0.051v-0.089h0.038v-0.039h0.039
	v-0.051H22v-0.038h0.179v-0.039h0.128v-0.051h0.166v-0.038h0.167V44.44h0.179v-0.051h0.127v-0.039h0.167v-0.039h0.179v-0.051h0.166
	v0.051h0.089v0.039h0.039v0.039h0.038v0.127h0.051v0.179h0.038v0.166h0.039v0.166h0.051v0.128h0.038v0.179h0.039v0.167h0.051v0.128
	h0.039v0.166h0.038v0.18h-0.038v0.089H23.93v0.039h-0.051v0.039h-0.128v0.051h-0.166v0.038h-0.167v0.039h-0.127v0.051h-0.179v0.038
	h-0.167v0.038h-0.179v0.051H22.64v0.039h-0.167v0.039H22.307z M24.224,44.389v-0.077h-0.039v-0.127h-0.051v-0.09h-0.038v-0.038
	h-0.039v-0.089h-0.051v-0.038h-0.038v-0.052H23.93v-0.038H23.84v-0.039h-0.038V43.75h-0.128v-0.038h-0.128v-0.039H23.24v-0.051
	h-0.038v-0.166h-0.039v-0.179h0.039v-0.039h0.038V43.2h0.128v-0.051h0.179V43.11h0.166v-0.038h0.128v-0.051h0.166v-0.039h0.179
	v-0.038h0.333v0.077h0.051V43.2h0.038v0.167h0.039v0.179h0.051v0.127h0.038v0.167h0.039v0.166h0.051v0.218h-0.051v0.038h-0.039
	v0.051h-0.127v0.039h-0.166v0.039H24.224z"/>
<path  fill="#676767" fill-rule="evenodd" clip-rule="evenodd" d="M14.539,45.757v-0.038h-0.127v-0.051h-0.089v-0.038h-0.039v-0.039h-0.089V45.54
	h-0.039v-0.038h-0.038v-0.038h-0.051v-0.09h-0.038v-0.038H13.99v-0.089h-0.051v-0.128H13.9v-0.383h-0.038v-0.511h-0.051V43.75
	h-0.039v-0.422h0.039V43.2h0.051v-0.127H13.9v-0.051h0.039v-0.077h0.051v-0.051h0.039v-0.038h0.038v-0.039h0.089v-0.051h0.039
	v-0.039h0.089v-0.038h0.128v-0.051h0.345v-0.039h0.511v-0.039h0.473v-0.051h0.511v0.051h0.127v0.039h0.077v0.039h0.051v0.051h0.077
	v0.038h0.051v0.039h0.038v0.051h0.038v0.039h0.051v0.089h0.039v0.077h0.039v0.128h0.051v0.307h0.038v0.512h0.039v0.473h0.051v0.55
	h-0.051v0.127h-0.039v0.09H16.89v0.076h-0.051v0.051h-0.039v0.038h-0.039v0.039h-0.051v0.051h-0.038v0.038h-0.089v0.038h-0.077
	v0.051h-0.128v0.039h-0.345v0.038h-0.473v0.051H15.05v0.038H14.539z M14.667,45.156v-0.038h-0.089v-0.039h-0.039v-0.051h-0.038
	v-0.332H14.45v-0.473h-0.038v-0.512h-0.039v-0.294h0.039v-0.09h0.038v-0.051h0.051v-0.039h0.294V43.2h0.511v-0.051h0.473V43.11
	h0.383v0.039H16.2V43.2h0.051v0.039h0.038v0.256h0.039v0.473h0.051v0.511h0.039V44.9h-0.039v0.051h-0.051v0.039H16.29v0.038h-0.255
	v0.051h-0.511v0.039H15.05v0.038H14.667z"/>
<path  fill="#676767" fill-rule="evenodd" clip-rule="evenodd" d="M8.994,47.47v-0.051H8.828v-0.038H8.739v-0.039H8.649v-0.051H8.611v-0.038H8.573
	v-0.038H8.521v-0.051H8.483v-0.077H8.445v-0.089H8.394v-0.09H8.355v-0.166H8.317v-0.167H8.266v-0.179H8.228v-0.127H8.189v-0.167
	H8.138v-0.166H8.1v-0.141H8.062v-0.332H8.1v-0.128h0.038v-0.089h0.051v-0.09h0.039v-0.038h0.038v-0.039h0.051v-0.051h0.038V44.99
	h0.089v-0.039h0.077V44.9h0.128v-0.039h0.179v-0.038h0.128v-0.051h0.166v-0.038h0.166v-0.039h0.179v-0.051h0.127v-0.038h0.205
	v-0.039h0.217v0.039h0.127v0.038h0.128v0.051h0.051v0.039H10.4v0.038h0.051v0.051h0.038V44.9h0.039v0.051h0.051v0.127h0.038v0.128
	h0.039v0.166h0.051v0.128h0.038v0.166h0.039v0.179h0.051v0.167h0.039v0.128h0.038v0.511h-0.038v0.09h-0.039v0.089h-0.051v0.038
	h-0.039v0.09h-0.038v0.039h-0.09v0.038h-0.038v0.051h-0.089v0.038h-0.128v0.039h-0.179v0.051h-0.166v0.038H9.85v0.038H9.723v0.051
	H9.544v0.039H9.378v0.038H9.211v0.051H8.994z M9.033,46.869v-0.038H8.994V46.78H8.956v-0.128H8.905v-0.166H8.867v-0.128H8.828
	v-0.166H8.777v-0.179H8.739v-0.167H8.7v-0.127H8.649V45.54H8.7v-0.038h0.039v-0.038h0.166v-0.051h0.128v-0.039h0.179v-0.038h0.167
	v-0.051h0.127v-0.038h0.166v-0.038h0.345v0.076h0.038v0.128h0.051v0.179h0.038v0.166h0.039v0.179h0.051v0.127h0.038v0.167h0.051
	v0.294h-0.051v0.051h-0.166v0.038H9.927v0.039H9.799v0.051H9.633v0.039H9.467v0.038H9.288v0.051H9.161v0.038H9.033z"/>
<path  fill="#676767" fill-rule="evenodd" clip-rule="evenodd" d="M11.856,53.019v-0.051h-0.128v-0.039h-0.089v-0.039h-0.039V52.84h-0.051v-0.038
	h-0.038v-0.039h-0.038v-0.051h-0.051v-0.039h-0.038v-0.089h-0.039v-0.128h-0.051V52.29h-0.038v-0.128h-0.039v-0.166h-0.051v-0.179
	h-0.039v-0.127H11.09v-0.167h-0.051v-0.167H11v-0.345h0.039v-0.128h0.051v-0.09h0.038v-0.038h0.039v-0.089h0.051v-0.039h0.077
	v-0.051h0.051v-0.039h0.077V50.5h0.089v-0.051h0.166v-0.038h0.128v-0.039h0.179v-0.051h0.166v-0.039h0.166v-0.038h0.128v-0.051
	h0.179v-0.039h0.421v0.039h0.128v0.051h0.051v0.038H13.3v0.039h0.051v0.051h0.038v0.039h0.039v0.038h0.051v0.09h0.038v0.089h0.039
	v0.166h0.051v0.128h0.039v0.179h0.038v0.167h0.051v0.166h0.038v0.128h0.039v0.179h0.051v0.46h-0.051v0.128h-0.039v0.051h-0.038
	v0.077h-0.051v0.051h-0.038v0.039h-0.039v0.039h-0.089v0.051h-0.038v0.038h-0.128v0.039h-0.128v0.051h-0.179v0.039h-0.166v0.038
	H12.7v0.051h-0.128v0.039h-0.166v0.039H12.24v0.051H11.856z M11.933,52.418v-0.039h-0.039v-0.127h-0.038v-0.179h-0.051v-0.166
	h-0.039v-0.166h-0.038v-0.128h-0.051v-0.179h-0.038v-0.166h-0.039v-0.167h0.039V51.05h0.089v-0.039h0.166V50.96h0.166v-0.039h0.179
	v-0.038h0.127v-0.051h0.166v-0.039H12.7v-0.038h0.217v0.038h0.051v0.039h0.039v0.179h0.038v0.166h0.051v0.179h0.038v0.128h0.039
	v0.166h0.051v0.167h0.039v0.256h-0.039v0.051h-0.089v0.039h-0.166v0.039h-0.179v0.051h-0.128v0.038h-0.166v0.039h-0.179v0.051H12.15
	v0.039H11.933z"/>
<path  fill="#676767" fill-rule="evenodd" clip-rule="evenodd" d="M21.157,55.192v-0.039h-0.128v-0.051H20.94v-0.038h-0.039v-0.038h-0.089v-0.052
	h-0.039v-0.038h-0.051v-0.089h-0.039v-0.077h-0.038v-0.051h-0.051v-0.077h-0.038v-0.089h-0.039v-0.039h-0.051v-0.09h-0.038v-0.089
	h-0.051v-0.077H20.34v-0.051h-0.039v-0.077H20.25v-0.089h-0.038v-0.089h-0.039v-0.039h-0.051v-0.089h-0.039v-0.077h-0.038v-0.179
	h-0.051v-0.167h0.051v-0.179h0.038v-0.127h0.039v-0.039h0.051v-0.089h0.039v-0.039h0.038v-0.039h0.09V52.84h0.038v-0.038h0.089
	v-0.039h0.09v-0.051h0.038v-0.039h0.089v-0.038h0.089v-0.051h0.077v-0.039h0.051v-0.039h0.077v-0.051h0.089v-0.038h0.039v-0.039
	h0.089v-0.051h0.089V52.29h0.077v-0.038h0.089v-0.051h0.089v-0.039h0.383v0.039h0.128v0.051h0.077v0.038h0.051v0.039h0.077v0.051
	h0.051v0.077h0.039v0.051h0.038v0.077h0.051v0.051h0.038v0.077h0.039v0.09h0.051v0.089h0.038v0.039h0.039v0.09h0.051v0.077h0.038
	v0.051h0.039v0.077h0.051v0.09h0.039v0.089h0.038v0.039h0.051v0.089h0.038v0.089h0.052v0.511h-0.052v0.077h-0.038v0.09h-0.051v0.039
	h-0.038v0.089h-0.039v0.039h-0.09v0.051H22.69v0.039h-0.089v0.038h-0.089v0.051h-0.039v0.039h-0.089v0.039h-0.077v0.051h-0.089
	v0.038h-0.039v0.039H22.09v0.051H22v0.039h-0.077v0.038h-0.051v0.052h-0.077v0.038h-0.09v0.038h-0.089v0.051h-0.077v0.039H21.157z
	 M21.234,54.591v-0.038h-0.038v-0.09h-0.039v-0.039h-0.051v-0.089h-0.039v-0.077h-0.039v-0.089h-0.051v-0.039H20.94v-0.089h-0.039
	v-0.089h-0.051v-0.077h-0.038v-0.051h-0.039v-0.077h-0.051v-0.089h-0.039V53.62h-0.038v-0.269h0.038v-0.038h0.089v-0.039h0.077
	v-0.051h0.09v-0.039h0.038v-0.038h0.089v-0.051h0.089v-0.039h0.039v-0.038h0.089v-0.051h0.077v-0.039h0.089v-0.039h0.039V52.84
	h0.089v-0.038h0.089v-0.039h0.166v0.039h0.039v0.089h0.051v0.077h0.039v0.051H22v0.077h0.051v0.089h0.039v0.039h0.038v0.09h0.051
	v0.089h0.039v0.077h0.039v0.051h0.051v0.089h0.039v0.077h0.038v0.089h0.051v0.218h-0.051v0.038h-0.077v0.039h-0.089v0.051h-0.089
	v0.039H22.09v0.038H22v0.051h-0.077v0.039h-0.089v0.039h-0.038v0.051h-0.09v0.038h-0.089v0.039h-0.077v0.051H21.49v0.039h-0.077
	v0.038H21.234z"/>
<path  fill="#676767" fill-rule="evenodd" clip-rule="evenodd" d="M14.706,61.163l-0.128-0.038l-0.039-0.039l-0.089-0.051l-0.038-0.038l-0.039-0.039
	l-0.051-0.051l-0.039-0.076l-0.038-0.09l-0.051-0.089l-0.039-0.166l-0.038-0.167l-0.051-0.179l-0.038-0.128l-0.039-0.167
	l-0.051-0.166L13.9,59.552v-0.384l0.039-0.127l0.051-0.089l0.039-0.039l0.038-0.051l0.051-0.039l0.038-0.038l0.039-0.051
	l0.051-0.039l0.077-0.051l0.127-0.039l0.179-0.038l0.127-0.051l0.167-0.039l0.166-0.038l0.127-0.051l0.179-0.039l0.166-0.039h0.345
	l0.128,0.039l0.089,0.039l0.038,0.051l0.09,0.038l0.038,0.039l0.039,0.051l0.051,0.077l0.039,0.051l0.038,0.127l0.051,0.128
	l0.039,0.166l0.038,0.179l0.051,0.128l0.038,0.166l0.038,0.166l0.051,0.128v0.473l-0.051,0.128l-0.038,0.089l-0.038,0.039
	l-0.051,0.038l-0.038,0.051l-0.039,0.038l-0.051,0.039l-0.077,0.051l-0.089,0.038l-0.166,0.038l-0.127,0.051l-0.179,0.039
	l-0.166,0.038l-0.166,0.051l-0.128,0.039l-0.179,0.038H14.706z M14.833,60.575l-0.038-0.051l-0.039-0.128l-0.051-0.166l-0.039-0.128
	l-0.038-0.166l-0.051-0.179l-0.039-0.166l-0.038-0.128v-0.166l0.038-0.09l0.128-0.039l0.166-0.051l0.179-0.038l0.167-0.039
	l0.127-0.051l0.179-0.038l0.166-0.039h0.166l0.051,0.039l0.038,0.089l0.039,0.166l0.051,0.128l0.038,0.166l0.038,0.179l0.051,0.166
	l0.038,0.128v0.256l-0.038,0.039l-0.051,0.051l-0.166,0.039l-0.166,0.038l-0.179,0.051l-0.128,0.039l-0.166,0.038l-0.179,0.051
	H14.833z"/>
<path  fill="#676767" fill-rule="evenodd" clip-rule="evenodd" d="M17.874,37.472v-0.038h-0.179v-0.039h-0.128v-0.051h-0.166v-0.038h-0.179v-0.038
	h-0.166v-0.051h-0.127v-0.039h-0.167V37.14h-0.179v-0.051h-0.166v-0.038h-0.09v-0.039h-0.076v-0.051h-0.089v-0.039h-0.039v-0.038
	h-0.051v-0.051h-0.039v-0.038h-0.039v-0.09h-0.051v-0.039h-0.039v-0.127h-0.038v-0.128h-0.052v-0.294h0.052v-0.178h0.038v-0.167
	h0.039v-0.179h0.051v-0.166h0.039v-0.128h0.039v-0.166h0.051v-0.179h0.039v-0.166H16.2V34.66h0.051v-0.129h0.038v-0.089h0.038
	v-0.039h0.052v-0.09h0.038v-0.038h0.038v-0.039h0.051v-0.051h0.077v-0.038h0.051V34.11h0.128v-0.051h0.128V34.02h0.293v0.039h0.167
	v0.051h0.179v0.039h0.166v0.038h0.179v0.051h0.128v0.039h0.167v0.038h0.166v0.051h0.179v0.039h0.127v0.039h0.128v0.051h0.077v0.038
	h0.051v0.039h0.077v0.051h0.051v0.039h0.038v0.038h0.039v0.09h0.051v0.039h0.039v0.127h0.038v0.128h0.051v0.345h-0.051v0.166H19.19
	v0.141h-0.039v0.166h-0.051v0.167h-0.039v0.179h-0.038v0.128h-0.051v0.166h-0.038v0.166h-0.039v0.128h-0.051v0.128h-0.039v0.09
	h-0.039v0.089h-0.051v0.038h-0.039v0.039H18.64v0.051h-0.051v0.038h-0.077v0.038h-0.051v0.051h-0.077v0.039h-0.179v0.038H17.874z
	 M17.951,36.884v-0.051h-0.167v-0.038h-0.179v-0.039h-0.128v-0.051h-0.166v-0.039h-0.166v-0.038h-0.179v-0.051h-0.128v-0.039h-0.166
	V36.5h-0.127V36.45h-0.039v-0.039h-0.051v-0.089h-0.038v-0.166h0.038v-0.167h0.051v-0.128h0.039v-0.179h0.038v-0.166h0.051v-0.179
	h0.039v-0.128h0.038v-0.166h0.051v-0.166h0.039v-0.129h0.038v-0.051h0.051V34.66h0.077v-0.039h0.179v0.039h0.166v0.038h0.128v0.051
	h0.166v0.039h0.179v0.039h0.167v0.051h0.127v0.038h0.179v0.039h0.166v0.051h0.127v0.039h0.039v0.038h0.051v0.089h0.039v0.167H18.64
	v0.179h-0.051v0.166h-0.039v0.128h-0.038v0.179h-0.051v0.167h-0.038v0.166h-0.039v0.128h-0.051v0.179h-0.038v0.128h-0.038v0.039
	h-0.051v0.038h-0.077v0.051H17.951z"/>
<path  fill="#676767" fill-rule="evenodd" clip-rule="evenodd" d="M22.179,39.147v-0.051h-0.128v-0.038h-0.089V39.02h-0.038v-0.051h-0.051V38.93
	h-0.039v-0.038h-0.038V38.84h-0.051v-0.038h-0.039v-0.09h-0.038v-0.077h-0.051v-0.179h-0.039v-0.166h-0.038v-0.128H21.49v-0.179
	h-0.039v-0.166h-0.038v-0.166h-0.051v-0.128h-0.039v-0.435h0.039v-0.077h0.051v-0.09h0.038v-0.089h0.039v-0.038h0.051v-0.039h0.038
	v-0.051h0.09v-0.039h0.038v-0.038h0.09v-0.051h0.166v-0.039h0.166V36.5h0.128V36.45h0.179v-0.039h0.166v-0.038h0.166v-0.051h0.128
	v-0.039h0.473v0.039h0.127v0.051h0.09v0.038h0.038v0.039h0.051V36.5h0.038v0.039h0.039v0.039h0.051v0.089h0.039v0.128h0.039v0.127
	h0.051v0.167h0.039v0.179h0.038v0.127h0.051v0.167h0.039v0.166h0.038v0.128h0.051v0.473h-0.051v0.089h-0.038v0.089h-0.039v0.039
	h-0.051v0.089h-0.038v0.039h-0.089v0.038H23.84v0.051h-0.089v0.039h-0.128v0.038h-0.128v0.051h-0.166v0.038h-0.166v0.039h-0.127
	v0.051h-0.179v0.038H22.69v0.038h-0.179v0.051H22.179z M22.256,38.546v-0.039h-0.039V38.38h-0.039v-0.179h-0.051v-0.127H22.09
	v-0.167h-0.039v-0.179H22v-0.166h-0.038v-0.128h-0.038v-0.217h0.038v-0.039h0.089V37.14h0.128v-0.051h0.167v-0.038h0.166v-0.039
	h0.179v-0.051h0.128v-0.039h0.166v-0.038h0.256v0.038h0.051v0.09h0.038v0.166h0.039v0.128h0.051v0.166h0.038v0.179h0.038v0.166
	h0.051v0.128h0.039v0.255h-0.039v0.039h-0.127v0.051H23.24v0.038h-0.166v0.051h-0.128v0.039h-0.179v0.039h-0.166v0.051h-0.127v0.039
	H22.256z"/>
</svg>
