<?xml version="1.0" encoding="utf-8"?>
<!-- Generator: Adobe Illustrator 16.0.0, SVG Export Plug-In . SVG Version: 6.00 Build 0)  -->
<!DOCTYPE svg PUBLIC "-//W3C//DTD SVG 1.1//EN" "http://www.w3.org/Graphics/SVG/1.1/DTD/svg11.dtd">
<svg version="1.1" id="Layer_1" xmlns="http://www.w3.org/2000/svg" xmlns:xlink="http://www.w3.org/1999/xlink" x="0px" y="0px"
	 width="322.581px" height="151.954px" viewBox="0 0 322.581 151.954" enable-background="new 0 0 322.581 151.954"
	 xml:space="preserve">
<g>
	<path fill="#676767" d="M175.625,151.954c-30.312,0-52.825-23.397-52.825-52.972v-0.295c0-29.28,22.072-53.264,53.707-53.264
		c19.423,0,31.047,6.474,40.61,15.891l-14.42,16.627c-7.946-7.21-16.038-11.624-26.338-11.624c-17.362,0-29.869,14.42-29.869,32.076
		v0.294c0,17.658,12.213,32.371,29.869,32.371c11.771,0,18.981-4.709,27.074-12.064l14.42,14.565
		C207.258,144.89,195.487,151.954,175.625,151.954z"/>
	<path fill="#676767" d="M280.682,150.922h-20.137L218.647,46.544h25.169l27.094,72.991l27.094-72.991h24.577L280.682,150.922z"/>
	<path fill="#676767" d="M74.357,80.101c0.967-4.81,2.598-11.811,8.777-17.076c10.473-8.924,20.042-7.044,31.223-3.924
		c9.936,2.772,12.382-2.749,12.578-2.906l-0.099-0.365c-0.83,0.166-2.133,0.212-4.05-0.249c-4.885-1.177-8.438-4.621-13.641-6.465
		c-11.593-4.109-22.069-1.733-30.736,9.182c-3.885,4.892-5.578,8.368-7.008,12.28c-0.205-0.719,0.177,0.728,0,0
		c-1.693-6.947-2.91-14.167-2.714-21.338c0.706-25.636,13.859-44.018,17.808-49.01l-0.003-0.002L86.198,0
		c-5.17,5.051-18.813,20.071-22.955,41.774c-2.562,13.426-1.702,20.09-0.886,25.352c0,0-7.815-9.776-20.874-11.922
		c-11.28-1.854-20.703,6.981-28.289,9.054c-7.55,2.064-11.624,1.705-13.001,1.464L0,66.03c0.905,0.954,3.769,3.202,10.806,3.381
		c3.885,0.099,8.07-0.997,12.576-2.091c7.513-1.827,15.921-3.654,25.334,0.055c15.059,5.934,20.088,18.118,21.968,37.379
		c1.064,10.895,0.847,20.842-1.593,32.861c-1.877,9.245-4.516,14.053-4.516,14.053h15.036c0.131-0.397,0.248-0.781,0.35-1.133
		c1.612-5.545,2.312-11.378,2.738-17.112C83.948,116.605,80.019,95.953,74.357,80.101z"/>
</g>
</svg>
