<?xml version="1.0"?>
<svg width="180" height="80" xmlns="http://www.w3.org/2000/svg">
 <!-- Created with Method Draw - http://github.com/duopixel/Method-Draw/ -->

 <g>
  <title>background</title>
  <rect fill="none" id="canvas_background" height="82" width="182" y="-1" x="-1"/>
  <g display="none" overflow="visible" y="0" x="0" height="100%" width="100%" id="canvasGrid">
   <rect fill="url(#gridpattern)" stroke-width="0" y="0" x="0" height="100%" width="100%"/>
  </g>
 </g>
 <g>
  <title>Layer 1</title>
  <g stroke="null" id="svg_6">
   <path stroke="null" id="svg_5" d="m77.470398,25.43401l-14.189354,14.980961c-1.834724,1.930862 -4.793922,1.930862 -6.621223,0c-1.827309,-1.930893 -1.827309,-5.060234 0,-6.991119l5.881409,-6.199516c-4.823479,-0.229332 -24.021317,0.392082 -31.152996,21.39502c-0.687996,2.019653 -2.507904,3.284714 -4.453587,3.284714c-0.525269,0 -1.057911,-0.088791 -1.575787,-0.288521c-2.456112,-0.909958 -3.735981,-3.728592 -2.870403,-6.303101c8.034218,-23.621819 28.940964,-28.955776 40.548462,-28.001446l-6.340103,-6.510246c-1.827324,-1.930866 -1.827324,-5.060226 0,-6.9837c1.827309,-1.930887 4.786507,-1.930887 6.621201,0l14.152382,14.633232c0.880371,0.924767 1.376038,2.18243 1.376038,3.491859c0,1.316849 -0.495667,2.567116 -1.376038,3.491863zm-64.695526,-8.174801l0,44.388023c0,2.722473 2.115826,4.934486 4.719917,4.934486l47.177078,0c2.604095,0 4.719917,-2.212013 4.719917,-4.934486l0,-14.796021l9.432465,0l0,19.730507c0,5.444916 -4.224274,9.861519 -9.432465,9.861519l-56.616913,0c-5.20821,0 -9.432461,-4.416603 -9.432461,-9.861519l0,-54.256969c0,-5.444935 4.224251,-9.861542 9.432461,-9.861542l23.584816,0l0,9.861542l-18.864899,0c-2.604092,0 -4.719917,2.21199 -4.719917,4.93446z" clip-rule="evenodd" fill="#fff" fill-rule="evenodd"/>
  </g>
  <g stroke="null" id="svg_12">
   <path stroke="null" id="svg_11" d="m137.496201,72.643677c-26.829811,0 -39.703773,-36.317928 -39.703773,-36.317928s12.873962,-36.325748 39.703773,-36.325748c26.837616,0 39.711578,36.325748 39.711578,36.325748s-12.873962,36.317928 -39.711578,36.317928zm0,-62.268234c-13.706795,0 -24.813881,11.620804 -24.813881,25.942493s11.107086,25.950287 24.813881,25.950287c13.706818,0 24.821686,-11.613007 24.821686,-25.942474s-11.114868,-25.950306 -24.821686,-25.950306zm0,41.517353c-8.227173,0 -14.88987,-6.966278 -14.88987,-15.567047c0,-1.829163 0.358032,-3.56488 0.910675,-5.19162l9.013313,0l0,-9.425877c1.564484,-0.575958 3.2146,-0.949585 4.965881,-0.949585c8.227203,0 14.889893,6.97403 14.889893,15.567081s-6.662689,15.567047 -14.889893,15.567047z" clip-rule="evenodd" fill="#fff" fill-rule="evenodd"/>
  </g>
 </g>
</svg>