<?xml version="1.0" encoding="utf-8"?>
<!-- Generator: Adobe Illustrator 16.0.0, SVG Export Plug-In . SVG Version: 6.00 Build 0)  -->
<!DOCTYPE svg PUBLIC "-//W3C//DTD SVG 1.1//EN" "http://www.w3.org/Graphics/SVG/1.1/DTD/svg11.dtd">
<svg version="1.1" id="Layer_1" xmlns="http://www.w3.org/2000/svg" xmlns:xlink="http://www.w3.org/1999/xlink" x="0px" y="0px"
	 width="12.521px" height="10.176px" viewBox="29.088 30.613 12.521 10.176" enable-background="new 29.088 30.613 12.521 10.176"
	 xml:space="preserve">
<path fill="#fff" d="M41.609,31.818c-0.461,0.205-0.956,0.343-1.477,0.404c0.531-0.318,0.938-0.82,1.131-1.421
	c-0.496,0.295-1.047,0.509-1.633,0.622c-0.467-0.498-1.135-0.81-1.875-0.81c-1.418,0-2.568,1.149-2.568,2.569
	c0,0.201,0.022,0.396,0.067,0.584c-2.135-0.105-4.029-1.13-5.295-2.684c-0.221,0.38-0.348,0.82-0.348,1.292
	c0,0.892,0.453,1.677,1.143,2.138c-0.421-0.013-0.817-0.129-1.164-0.321c0,0.012,0,0.021,0,0.032c0,1.245,0.886,2.282,2.061,2.519
	c-0.216,0.061-0.443,0.092-0.677,0.092c-0.165,0-0.327-0.018-0.483-0.047c0.328,1.021,1.276,1.764,2.4,1.783
	c-0.88,0.689-1.987,1.102-3.19,1.102c-0.208,0-0.412-0.014-0.613-0.036c1.137,0.729,2.487,1.153,3.938,1.153
	c4.726,0,7.31-3.914,7.31-7.31c0-0.111-0.004-0.222-0.008-0.333C40.83,32.785,41.265,32.333,41.609,31.818z"/>
</svg>
