<?xml version="1.0" encoding="utf-8"?>
<!-- Generator: Adobe Illustrator 16.0.0, SVG Export Plug-In . SVG Version: 6.00 Build 0)  -->
<!DOCTYPE svg PUBLIC "-//W3C//DTD SVG 1.1//EN" "http://www.w3.org/Graphics/SVG/1.1/DTD/svg11.dtd">
<svg version="1.1" id="Layer_1" xmlns="http://www.w3.org/2000/svg" xmlns:xlink="http://www.w3.org/1999/xlink" x="0px" y="0px"
	 width="20px" height="20px" viewBox="0 0 20 20" enable-background="new 0 0 20 20" xml:space="preserve">
<g>
	<path fill-rule="evenodd" clip-rule="evenodd" d="M11.241,10.6c-0.125-0.045-0.297-0.07-0.516-0.075
		c-0.219-0.006-0.512-0.008-0.879-0.008h-0.38v1.947h0.11c0.537,0,0.908-0.003,1.114-0.01c0.206-0.007,0.415-0.054,0.628-0.141
		c0.188-0.077,0.324-0.189,0.411-0.337c0.086-0.148,0.129-0.316,0.129-0.504c0-0.24-0.052-0.428-0.154-0.563
		C11.601,10.772,11.447,10.67,11.241,10.6z"/>
	<path fill-rule="evenodd" clip-rule="evenodd" d="M10.466,9.175c0.142-0.006,0.288-0.043,0.438-0.109
		c0.166-0.073,0.279-0.174,0.342-0.303c0.062-0.128,0.094-0.278,0.094-0.449c0-0.125-0.034-0.253-0.102-0.386
		c-0.068-0.131-0.174-0.228-0.317-0.287c-0.136-0.056-0.297-0.086-0.482-0.091s-0.462-0.008-0.83-0.008H9.466v1.645h0.259
		C10.078,9.186,10.325,9.182,10.466,9.175z"/>
	<path fill-rule="evenodd" clip-rule="evenodd" d="M10.425,0H9.878C4.59,0,0.303,4.353,0.303,9.723v0.556
		C0.303,15.648,4.59,20,9.878,20h0.547C15.713,20,20,15.648,20,10.279V9.723C20,4.353,15.713,0,10.425,0z M13.749,12.527
		c-0.154,0.292-0.362,0.534-0.623,0.725c-0.309,0.23-0.647,0.394-1.017,0.491c-0.369,0.097-0.838,0.146-1.408,0.146H7.416V6.116
		h2.899c0.603,0,1.059,0.021,1.37,0.065c0.311,0.043,0.602,0.134,0.874,0.274c0.294,0.149,0.514,0.35,0.659,0.601
		c0.146,0.25,0.218,0.539,0.218,0.866c0,0.38-0.1,0.717-0.3,1.013c-0.2,0.296-0.477,0.514-0.83,0.653v0.042
		c0.507,0.101,0.913,0.307,1.218,0.619s0.458,0.731,0.458,1.261C13.98,11.896,13.903,12.234,13.749,12.527z"/>
</g>
</svg>
