<?xml version="1.0" encoding="utf-8"?>
<!-- Generator: Adobe Illustrator 16.0.0, SVG Export Plug-In . SVG Version: 6.00 Build 0)  -->
<!DOCTYPE svg PUBLIC "-//W3C//DTD SVG 1.1//EN" "http://www.w3.org/Graphics/SVG/1.1/DTD/svg11.dtd">
<svg version="1.1" id="Layer_1" xmlns="http://www.w3.org/2000/svg" xmlns:xlink="http://www.w3.org/1999/xlink" x="0px" y="0px"
	 width="15.851px" height="9.114px" viewBox="26.602 31.146 15.851 9.114" enable-background="new 26.602 31.146 15.851 9.114"
	 xml:space="preserve">
<g>
	<path fill="#fff" d="M41.189,34.251c0.973-1.309,1.361-2.106,1.24-2.449c-0.115-0.325-0.832-0.239-0.832-0.239l-2.383,0.016
		c0,0-0.178-0.025-0.31,0.054c-0.127,0.077-0.209,0.257-0.209,0.257s-0.378,1.014-0.881,1.873c-1.062,1.816-1.485,1.914-1.659,1.801
		c-0.404-0.264-0.303-1.057-0.303-1.62c0-1.761,0.266-2.495-0.516-2.685c-0.259-0.062-0.45-0.104-1.112-0.111
		c-0.851-0.008-1.57,0.003-1.978,0.205c-0.271,0.133-0.48,0.431-0.353,0.448c0.158,0.021,0.514,0.097,0.704,0.356
		c0.244,0.335,0.235,1.087,0.235,1.087s0.141,2.072-0.328,2.33c-0.321,0.177-0.762-0.185-1.708-1.833
		c-0.485-0.844-0.851-1.777-0.851-1.777s-0.071-0.174-0.197-0.268c-0.152-0.112-0.366-0.148-0.366-0.148l-2.265,0.016
		c0,0-0.34,0.01-0.464,0.158c-0.111,0.133-0.009,0.406-0.009,0.406s1.773,4.182,3.781,6.29c1.841,1.932,3.932,1.805,3.932,1.805
		h0.947c0,0,0.286-0.031,0.433-0.189c0.134-0.146,0.13-0.42,0.13-0.42s-0.019-1.281,0.572-1.471
		c0.581-0.186,1.328,1.238,2.119,1.787c0.601,0.414,1.054,0.322,1.054,0.322l2.116-0.029c0,0,1.106-0.068,0.583-0.945
		c-0.043-0.072-0.307-0.648-1.574-1.836C39.412,36.197,39.589,36.398,41.189,34.251z"/>
</g>
</svg>
